<?xml version="1.0" encoding="UTF-8"?>
<svg version="1.1" xmlns="http://www.w3.org/2000/svg" width="512" height="512">
<path d="M0 0 C1.14594639 0.00351175 1.14594639 0.00351175 2.31504321 0.00709444 C3.12294008 0.005641 3.93083695 0.00418756 4.76321554 0.00269008 C7.50547516 -0.00099689 10.24768012 0.00252888 12.98993945 0.00595194 C14.96174468 0.00480118 16.9335497 0.00321397 18.90535426 0.0012247 C24.35112234 -0.00297489 29.79687304 -0.00087512 35.24264121 0.00221092 C41.10500277 0.00446225 46.96736122 0.00098674 52.82972217 -0.00176901 C64.32490772 -0.00622857 75.82008676 -0.00524941 87.31527257 -0.00235637 C96.65305662 -0.00006777 105.99083917 0.00023704 115.32862353 -0.00088018 C115.99108343 -0.00095657 116.65354333 -0.00103295 117.33607776 -0.00111165 C120.02493602 -0.00142297 122.71379428 -0.00174137 125.40265254 -0.00207142 C150.64771296 -0.00513329 175.89276982 -0.0023524 201.13782969 0.00302548 C223.58707001 0.0077714 246.03630465 0.00734679 268.48554492 0.00256449 C293.68320244 -0.0027853 318.88085681 -0.00491618 344.07851481 -0.00182325 C346.76259239 -0.00150251 349.44666998 -0.00118967 352.13074756 -0.00088018 C352.79167956 -0.0008011 353.45261157 -0.00072203 354.13357182 -0.00064055 C364.13267216 0.00049892 374.13176976 -0.00084321 384.13086963 -0.00335974 C395.49553484 -0.00615691 406.86019315 -0.00542123 418.22485757 -0.00007899 C424.02940605 0.00255915 429.83394298 0.0035612 435.63849139 0.00027186 C440.94305756 -0.00268882 446.24760139 -0.00110215 451.55216551 0.00424941 C453.48013505 0.00537458 455.40810646 0.00478023 457.33607483 0.00237362 C459.93885342 -0.00062829 462.54155353 0.00241194 465.14432788 0.00709444 C465.90829214 0.00475328 466.6722564 0.00241211 467.45937109 0 C472.6155352 0.01878524 472.6155352 0.01878524 473.72968554 1.13293558 C473.82959891 3.58434368 473.86410394 6.00763719 473.85666919 8.45959574 C473.85822918 9.23561955 473.85978917 10.01164335 473.86139643 10.81118304 C473.8654095 13.4314736 473.86221561 16.05170701 473.85908008 18.67199808 C473.86043398 20.54242079 473.86221385 22.41284324 473.86439013 24.28326517 C473.86896575 29.37815855 473.86717438 34.47303177 473.86401105 39.56792551 C473.86148811 44.88728491 473.8638248 50.20664253 473.86539721 55.52600199 C473.8672191 64.46073823 473.8648121 73.39546622 473.86005664 82.33020121 C473.85461398 92.67587101 473.85637663 103.0215211 473.86188304 113.36719042 C473.86641363 122.23254732 473.86706499 131.09789826 473.86444438 139.96325594 C473.8628813 145.26568906 473.86268867 150.56811291 473.86598086 155.87054545 C473.86885878 160.85432207 473.86688535 165.83807317 473.86108661 170.82184702 C473.85975858 172.65651761 473.86015384 174.49119033 473.86234927 176.32586008 C473.86505912 178.81936138 473.8616817 181.31277951 473.85666919 183.80627543 C473.85889991 184.54196064 473.86113063 185.27764586 473.86342895 186.03562456 C473.8438354 191.01878573 473.8438354 191.01878573 472.72968554 192.13293558 C469.7746616 192.02880968 466.84526461 191.86119762 463.89667773 191.6558848 C410.52723472 184.93356032 410.52723472 184.93356032 362.26670337 199.88299662 C353.44140903 209.47970032 347.95614379 221.53178927 344.51848865 234.02620035 C343.59390286 236.49558397 342.51539619 238.19318291 340.72968554 240.13293558 C337.60468554 240.44543558 337.60468554 240.44543558 334.72968554 240.13293558 C334.39968554 239.80293558 334.06968554 239.47293558 333.72968554 239.13293558 C333.72968554 223.62293558 333.72968554 208.11293558 333.72968554 192.13293558 C241.65968554 192.13293558 149.58968554 192.13293558 54.72968554 192.13293558 C54.39968554 190.81293558 54.06968554 189.49293558 53.72968554 188.13293558 C51.08968554 188.13293558 48.44968554 188.13293558 45.72968554 188.13293558 C45.39968554 189.45293558 45.06968554 190.77293558 44.72968554 192.13293558 C37.62723555 192.15820346 30.52479707 192.17576759 23.4223125 192.18786722 C21.00401382 192.19290907 18.58571821 192.19974236 16.16742969 192.20837504 C12.69989271 192.22044715 9.23239588 192.22616522 5.76484179 192.23059183 C4.67631412 192.23575312 3.58778644 192.2409144 2.46627307 192.24623209 C0.96482997 192.24634539 0.96482997 192.24634539 -0.56694531 192.24646097 C-1.89598134 192.24979189 -1.89598134 192.24979189 -3.25186658 192.2531901 C-5.27031446 192.13293558 -5.27031446 192.13293558 -6.27031446 191.13293558 C-6.37022782 188.68152749 -6.40473285 186.25823398 -6.3972981 183.80627543 C-6.39885809 183.03025162 -6.40041808 182.25422781 -6.40202534 181.45468813 C-6.40603841 178.83439757 -6.40284452 176.21416416 -6.39970899 173.59387308 C-6.40106289 171.72345037 -6.40284276 169.85302793 -6.40501904 167.98260599 C-6.40959466 162.88771262 -6.40780329 157.7928394 -6.40463996 152.69794565 C-6.40211702 147.37858626 -6.40445371 142.05922864 -6.40602612 136.73986918 C-6.40784801 127.80513294 -6.40544101 118.87040495 -6.40068555 109.93566996 C-6.39524289 99.59000016 -6.39700554 89.24435007 -6.40251195 78.89868075 C-6.40704254 70.03332385 -6.4076939 61.1679729 -6.40507329 52.30261523 C-6.40351021 47.0001821 -6.40331758 41.69775826 -6.40660977 36.39532572 C-6.40948769 31.4115491 -6.40751426 26.427798 -6.40171552 21.44402415 C-6.40038749 19.60935356 -6.40078275 17.77468084 -6.40297818 15.94001108 C-6.40568803 13.44650979 -6.40231061 10.95309165 -6.3972981 8.45959574 C-6.39952882 7.72391052 -6.40175954 6.98822531 -6.40405786 6.2302466 C-6.38034654 0.19982769 -6.01056049 0.02189803 0 0 Z " fill="#FBC318" transform="translate(22.27031445503235,19.86706441640854)"/>
<path d="M0 0 C6.09912046 1.99982054 12.31931419 1.90353663 18.69140625 2.03515625 C22.5859375 2.17578125 22.5859375 2.17578125 24.5859375 3.17578125 C24.70321876 6.84217373 24.77354641 10.50807645 24.8359375 14.17578125 C24.86945313 15.20574219 24.90296875 16.23570312 24.9375 17.296875 C25.01952148 23.73556115 24.65734355 28.97186745 20.5859375 34.17578125 C19.37545891 35.1578149 18.1398491 36.10956269 16.8828125 37.03125 C14.64438532 38.80084971 13.71783125 39.67905923 12.97851562 42.46337891 C12.78023146 45.15912374 12.76327522 47.78639175 12.8359375 50.48828125 C12.92052104 58.91642674 12.5521142 66.73080146 7.1484375 73.61328125 C4.5859375 76.17578125 4.5859375 76.17578125 2.3359375 77.17578125 C1.7584375 77.50578125 1.1809375 77.83578125 0.5859375 78.17578125 C0.19024621 80.16438365 -0.14678929 82.16588669 -0.4140625 84.17578125 C0.27783173 84.1668988 0.96972595 84.15801636 1.68258667 84.14886475 C8.24279193 84.06830212 14.80285664 84.00760722 21.36344719 83.96853256 C24.73535352 83.94776749 28.10684688 83.91965736 31.47851562 83.87402344 C35.36599403 83.82521462 39.25289485 83.80274482 43.140625 83.78515625 C44.93341385 83.75418854 44.93341385 83.75418854 46.76242065 83.72259521 C56.47899183 83.72002108 64.55748518 85.61372888 71.8984375 92.30078125 C72.67832031 92.98398437 73.45820313 93.6671875 74.26171875 94.37109375 C80.96550773 102.46070802 83.35086196 112.52640633 85.9765625 122.484375 C86.3696265 123.94289072 86.763667 125.4011436 87.15863037 126.85914612 C88.1868353 130.66451182 89.2024227 134.47312769 90.21508789 138.28265381 C91.2506847 142.17021419 92.2974655 146.05475811 93.34375 149.93945312 C94.51848528 154.30183971 95.69222594 158.66445748 96.85650635 163.02964783 C97.12122742 164.02078079 97.12122742 164.02078079 97.39129639 165.03193665 C97.86685647 166.81334471 98.34145316 168.59500988 98.815979 170.37669373 C99.35201184 172.32537386 99.94682206 174.25843493 100.5859375 176.17578125 C103.10917018 170.26013514 105.6294684 164.34324403 108.1484375 158.42578125 C108.52776428 157.53506927 108.90709106 156.6443573 109.2979126 155.72665405 C113.55467503 145.72732887 117.79053689 135.72025563 121.94921875 125.6796875 C122.29112747 124.8548587 122.63303619 124.03002991 122.98530579 123.1802063 C124.61250843 119.252334 126.2346322 115.3224624 127.84985352 111.38964844 C128.43624686 109.97065608 129.022748 108.55170827 129.609375 107.1328125 C129.86805862 106.4980751 130.12674225 105.86333771 130.39326477 105.20936584 C132.86653068 99.2462006 134.63273889 95.09462855 140.5859375 92.17578125 C143.77980042 91.78137207 143.77980042 91.78137207 147.42407227 91.75585938 C148.0913736 91.74738983 148.75867493 91.73892029 149.44619751 91.73019409 C151.64010954 91.70689669 153.83331767 91.70579983 156.02734375 91.70703125 C157.55761494 91.69992715 159.08788346 91.69222778 160.6181488 91.68395996 C163.81997087 91.67053332 167.02154638 91.66893897 170.22338867 91.67480469 C174.32506987 91.68071078 178.42557145 91.65006502 182.52702427 91.60968781 C185.68493516 91.58383717 188.84256056 91.58093069 192.00056267 91.58457947 C193.512847 91.58288689 195.02514433 91.57323093 196.53732491 91.55543518 C198.65142064 91.53328569 200.76310949 91.54292068 202.87719727 91.56054688 C204.07901138 91.55849243 205.2808255 91.55643799 206.51905823 91.55432129 C209.5859375 92.17578125 209.5859375 92.17578125 211.979599 94.5291748 C213.9516816 97.77838194 214.09162236 99.42889727 213.5859375 103.17578125 C212.51953125 106.02734375 212.51953125 106.02734375 211.0234375 108.80078125 C210.54777344 109.72117187 210.07210938 110.6415625 209.58203125 111.58984375 C204.35122279 118.36635099 196.20048541 119.56617456 188.2734375 121.42578125 C187.17708984 121.69390625 186.08074219 121.96203125 184.95117188 122.23828125 C176.93921397 124.17578125 176.93921397 124.17578125 174.5859375 124.17578125 C174.40949613 124.79367271 174.23305475 125.41156418 174.05126667 126.04817963 C172.35075178 131.87573575 170.39618342 137.51033748 168.12768555 143.13867188 C167.79551025 143.97262985 167.46333496 144.80658783 167.12109375 145.66581726 C166.03453477 148.38974838 164.94151777 151.1110252 163.84765625 153.83203125 C163.08147417 155.74429002 162.31542938 157.65660381 161.54951477 159.56896973 C159.94798039 163.56432432 158.34288314 167.55822609 156.7355957 171.55126953 C154.6859953 176.64477357 152.64827498 181.74293792 150.61358929 186.84241486 C149.03657558 190.7895213 147.45174382 194.73345414 145.86475563 198.67655945 C145.11055413 200.55395613 144.35907353 202.43244843 143.61047935 204.31208801 C131.54723004 234.57222809 131.54723004 234.57222809 116.1484375 242.17578125 C106.39977027 245.83620037 94.85482665 245.85125958 85.0859375 242.23828125 C73.2696937 236.37925731 66.93106121 227.76236766 62.66400146 215.53366089 C60.19981529 208.04246295 57.95802368 200.48426042 55.7109375 192.92578125 C55.01661964 190.61949199 54.32131549 188.31349942 53.625 186.0078125 C51.93391716 180.40050803 50.25508004 174.7896534 48.5859375 169.17578125 C48.57563004 170.4013121 48.56532257 171.62684296 48.55470276 172.88951111 C48.45714958 184.41199298 48.35443316 195.93441867 48.24659824 207.45680904 C48.19132058 213.38126152 48.13789298 219.30571888 48.08862305 225.23022461 C48.04105076 230.94255084 47.98871082 236.65481492 47.93299675 242.36706734 C47.91254075 244.55164617 47.89383317 246.73624206 47.87686348 248.92085075 C47.85289105 251.96935095 47.82282708 255.01773247 47.79125977 258.06616211 C47.7855043 258.97893921 47.77974884 259.89171631 47.77381897 260.83215332 C47.69998966 267.06172909 47.69998966 267.06172909 46.5859375 268.17578125 C44.58635386 268.21658908 42.58548496 268.21832481 40.5859375 268.17578125 C40.2559375 266.85578125 39.9259375 265.53578125 39.5859375 264.17578125 C-0.0140625 264.17578125 -39.6140625 264.17578125 -80.4140625 264.17578125 C-80.7440625 265.49578125 -81.0740625 266.81578125 -81.4140625 268.17578125 C-83.41360996 268.21832481 -85.41447886 268.21658908 -87.4140625 268.17578125 C-89.56429498 266.02554877 -88.6005669 261.05054797 -88.61938477 258.06616211 C-88.62928436 257.11016617 -88.63918396 256.15417023 -88.64938354 255.16920471 C-88.68110102 251.99303711 -88.70579631 248.81685452 -88.73046875 245.640625 C-88.75102944 243.44486592 -88.77202566 241.24911089 -88.79344177 239.05335999 C-88.84875389 233.26161967 -88.89812272 227.46984311 -88.94628906 221.67803955 C-88.99643753 215.77295691 -89.05215825 209.86792721 -89.10742188 203.96289062 C-89.21511517 192.36723267 -89.31653517 180.77152885 -89.4140625 169.17578125 C-89.60118805 169.8050351 -89.7883136 170.43428894 -89.98110962 171.08261108 C-91.9443556 177.67453243 -93.92691192 184.26042762 -95.92041016 190.84326172 C-96.66033228 193.29556582 -97.39543928 195.74932843 -98.12548828 198.20458984 C-99.18016709 201.74848332 -100.252474 205.28664227 -101.328125 208.82421875 C-101.64713776 209.91004242 -101.96615051 210.99586609 -102.29483032 212.11459351 C-106.09948058 224.48824135 -111.85862669 233.91975118 -123.02734375 240.78125 C-132.62724652 245.52145095 -143.56549355 245.78766291 -153.8828125 243.359375 C-164.18325856 239.54980281 -171.42154842 233.00437003 -176.18359375 223.14794922 C-176.69286156 222.10973683 -176.69286156 222.10973683 -177.2124176 221.05055046 C-181.55043353 212.03779053 -185.18431501 202.73352656 -188.8515625 193.43359375 C-189.6243167 191.48806424 -190.3976015 189.54274541 -191.17138672 187.59762573 C-192.77570856 183.56045906 -194.37533765 179.52147834 -195.97119141 175.48095703 C-198.01955408 170.29516892 -200.0773463 165.1131861 -202.13825989 159.93237495 C-203.7280487 155.93420699 -205.31424598 151.93462256 -206.89920044 147.93453598 C-207.65754913 146.02117549 -208.41672148 144.10814125 -209.17672729 142.19543839 C-210.2306727 139.54066929 -211.28007872 136.88415324 -212.328125 134.22705078 C-212.64283249 133.43651306 -212.95753998 132.64597534 -213.28178406 131.83148193 C-215.4140625 126.40479554 -215.4140625 126.40479554 -215.4140625 124.17578125 C-216.58582031 123.92183594 -217.75757813 123.66789062 -218.96484375 123.40625 C-245.55085524 117.60710722 -245.55085524 117.60710722 -249.4140625 113.17578125 C-255.65044109 103.08292342 -255.65044109 103.08292342 -254.4140625 97.17578125 C-252.79820251 94.54626465 -252.79820251 94.54626465 -250.4140625 92.17578125 C-247.34718323 91.55432129 -247.34718323 91.55432129 -243.70532227 91.56054688 C-243.03977325 91.55499786 -242.37422424 91.54944885 -241.68850708 91.54373169 C-239.49342309 91.53194282 -237.30040763 91.55620062 -235.10546875 91.58203125 C-233.57616775 91.58374287 -232.04686381 91.58367614 -230.51756287 91.58190918 C-227.31375013 91.58356204 -224.11063745 91.60225032 -220.90698242 91.63378906 C-216.80670709 91.67343373 -212.70734987 91.67783815 -208.60691929 91.67032623 C-205.44894548 91.66725158 -202.29117685 91.67939506 -199.1332531 91.69645691 C-197.62183864 91.70347347 -196.11040092 91.70661307 -194.59897041 91.70576477 C-192.48295489 91.70756923 -190.36802434 91.72900481 -188.25219727 91.75585938 C-187.04958755 91.76427856 -185.84697784 91.77269775 -184.60792542 91.78137207 C-181.09678692 92.21496152 -179.22454903 93.06206097 -176.4140625 95.17578125 C-174.68457031 97.83691406 -174.68457031 97.83691406 -173.1171875 101.12890625 C-172.82587952 101.73744446 -172.53457153 102.34598267 -172.23443604 102.97296143 C-168.22788266 111.48394271 -164.71916184 120.21989209 -161.1640625 128.92578125 C-160.0447255 131.6498972 -158.92344562 134.37320782 -157.80198669 137.09645081 C-157.05968803 138.8991443 -156.31795315 140.70207004 -155.57679749 142.50523376 C-152.38326879 150.27021463 -149.13271674 158.00997932 -145.8515625 165.73828125 C-145.39297852 166.81883789 -144.93439453 167.89939453 -144.46191406 169.01269531 C-143.44728305 171.40095603 -142.43152372 173.78872524 -141.4140625 176.17578125 C-139.99634956 171.19104611 -138.58162653 166.20547398 -137.16973877 161.21908569 C-136.66654273 159.4422928 -136.16292228 157.66562006 -135.65887451 155.8890686 C-133.05319433 146.69878115 -130.46666138 137.50726634 -128.078125 128.2578125 C-127.9015033 127.57746948 -127.72488159 126.89712646 -127.54290771 126.19616699 C-126.72733793 123.04945325 -125.92412642 119.90047615 -125.140625 116.74560547 C-122.50415661 106.49545186 -119.13853866 96.75681605 -110.4140625 90.17578125 C-104.72159804 86.84001441 -99.35098833 84.0447132 -92.66723633 84.06225586 C-91.70646683 84.06233139 -90.74569733 84.06240692 -89.7558136 84.06248474 C-88.72135605 84.06764603 -87.6868985 84.07280731 -86.62109375 84.078125 C-85.55992844 84.07953995 -84.49876312 84.0809549 -83.40544128 84.08241272 C-80.01245315 84.08801519 -76.61953073 84.10056811 -73.2265625 84.11328125 C-70.92773533 84.11829593 -68.62890712 84.12285889 -66.33007812 84.12695312 C-60.69138378 84.13798542 -55.05272784 84.15472595 -49.4140625 84.17578125 C-49.0840625 85.49578125 -48.7540625 86.81578125 -48.4140625 88.17578125 C-46.1040625 88.17578125 -43.7940625 88.17578125 -41.4140625 88.17578125 C-41.46586649 83.75815148 -41.56093129 79.34248743 -41.6640625 74.92578125 C-41.67824219 73.67152344 -41.69242188 72.41726563 -41.70703125 71.125 C-41.73925781 69.91972656 -41.77148438 68.71445312 -41.8046875 67.47265625 C-41.82563477 66.36245117 -41.84658203 65.25224609 -41.86816406 64.10839844 C-42.53498901 60.5261528 -43.78157263 59.59639079 -46.4140625 57.17578125 C-49.34891106 51.61859923 -48.74965503 45.66474027 -48.72973633 39.53051758 C-48.72659831 37.51132067 -48.74998337 35.49362318 -48.77539062 33.47460938 C-48.78105261 22.06571963 -47.51756238 12.66169348 -39.4140625 4.17578125 C-27.74046385 -6.309487 -13.72655969 -6.13718978 0 0 Z " fill="#020101" transform="translate(276.4140625,223.82421875)"/>
<path d="M0 0 C3.625 -0.1875 3.625 -0.1875 7 0 C7.02578125 0.9178125 7.0515625 1.835625 7.078125 2.78125 C7.48171507 11.51347148 7.98525814 18.18599523 14.5 24.375 C20.39993325 28.20995661 24.98375254 28.78605262 32 28 C38.33355849 26.05686846 42.03065573 22.62773944 45.1875 16.8125 C45.97547817 14.08488324 46.28817811 11.6443481 46.55078125 8.82421875 C46.67900269 7.47009888 46.67900269 7.47009888 46.80981445 6.08862305 C46.9039563 5.05475464 46.9039563 5.05475464 47 4 C54.52556829 3.92363785 62.05103582 3.87126924 69.5769043 3.83520508 C72.13455947 3.8201629 74.69218904 3.79972411 77.24975586 3.77368164 C80.93609963 3.73709796 84.62210091 3.72022732 88.30859375 3.70703125 C89.44332626 3.69154739 90.57805878 3.67606354 91.74717712 3.66011047 C100.8404563 3.65820341 108.63338777 4.80647136 115.45141602 11.22729492 C121.11645194 17.7122115 123.14405532 25.29686094 124.8125 33.5625 C125.02841797 34.57119141 125.24433594 35.57988281 125.46679688 36.61914062 C125.99098193 39.0769861 126.50171964 41.5367967 127 44 C125.88439697 44.02505615 124.76879395 44.0501123 123.61938477 44.07592773 C119.4950741 44.16983421 115.3709385 44.27009514 111.24682617 44.37231445 C109.4591073 44.415727 107.67134526 44.45739729 105.88354492 44.49731445 C103.31936609 44.5548646 100.75540588 44.61860203 98.19140625 44.68359375 C97.3872377 44.70030624 96.58306915 44.71701874 95.75453186 44.73423767 C92.07330002 44.49220696 92.07330002 44.49220696 89 46 C88.87455851 49.16545904 88.81387261 52.31004128 88.79467773 55.47680664 C88.78464501 56.48797011 88.77461229 57.49913359 88.76427555 58.54093838 C88.73276551 61.83065397 88.70806806 65.12038155 88.68359375 68.41015625 C88.66520183 70.43453374 88.64636579 72.45890724 88.6270752 74.48327637 C88.55848979 82.00963703 88.49852538 89.53607425 88.4375 97.0625 C88.293125 113.871875 88.14875 130.68125 88 148 C48.4 148 8.8 148 -32 148 C-32.4375 97.0625 -32.4375 97.0625 -32.56811523 80.95336914 C-32.6113481 76.20591884 -32.6113481 76.20591884 -32.65589905 71.45848083 C-32.67517432 69.33687386 -32.69248328 67.21524849 -32.70826721 65.09361267 C-32.73249188 61.8879505 -32.76287196 58.68240131 -32.79467773 55.47680664 C-32.80044799 54.52483178 -32.80621824 53.57285692 -32.81216335 52.59203434 C-32.4398747 48.46933455 -32.4398747 48.46933455 -34 45 C-36.73701178 44.83989519 -39.4516759 44.74053172 -42.19140625 44.68359375 C-43.01124496 44.66281265 -43.83108368 44.64203156 -44.67576599 44.62062073 C-47.30458901 44.55503506 -49.93351504 44.49619874 -52.5625 44.4375 C-54.34050561 44.39432333 -56.11850065 44.35070933 -57.89648438 44.30664062 C-62.26421634 44.19934457 -66.63205227 44.09810296 -71 44 C-70.29511537 40.51546744 -69.55663736 37.0388432 -68.8125 33.5625 C-68.61591797 32.58861328 -68.41933594 31.61472656 -68.21679688 30.61132812 C-66.26046667 21.6122092 -63.18327146 14.30709074 -56.0390625 8.2890625 C-49.48976521 4.14870214 -44.15122654 3.56934618 -36.54296875 3.59375 C-35.55879471 3.58291382 -34.57462067 3.57207764 -33.56062317 3.56091309 C-29.37127252 3.51516806 -25.18198771 3.50349556 -20.99243164 3.48876953 C-17.92571589 3.47314356 -14.85952752 3.44017905 -11.79296875 3.40625 C-10.84093063 3.40927124 -9.88889252 3.41229248 -8.90800476 3.41540527 C-7.59072136 3.40023865 -7.59072136 3.40023865 -6.24682617 3.38476562 C-5.47296066 3.38271118 -4.69909515 3.38065674 -3.90177917 3.37854004 C-3.27419205 3.25362183 -2.64660492 3.12870361 -2 3 C-1.34 2.01 -0.68 1.02 0 0 Z " fill="#3A68AF" transform="translate(228,312)"/>
<path d="M0 0 C1.14594639 0.00351175 1.14594639 0.00351175 2.31504321 0.00709444 C3.12294008 0.005641 3.93083695 0.00418756 4.76321554 0.00269008 C7.50547516 -0.00099689 10.24768012 0.00252888 12.98993945 0.00595194 C14.96174468 0.00480118 16.9335497 0.00321397 18.90535426 0.0012247 C24.35112234 -0.00297489 29.79687304 -0.00087512 35.24264121 0.00221092 C41.10500277 0.00446225 46.96736122 0.00098674 52.82972217 -0.00176901 C64.32490772 -0.00622857 75.82008676 -0.00524941 87.31527257 -0.00235637 C96.65305662 -0.00006777 105.99083917 0.00023704 115.32862353 -0.00088018 C115.99108343 -0.00095657 116.65354333 -0.00103295 117.33607776 -0.00111165 C120.02493602 -0.00142297 122.71379428 -0.00174137 125.40265254 -0.00207142 C150.64771296 -0.00513329 175.89276982 -0.0023524 201.13782969 0.00302548 C223.58707001 0.0077714 246.03630465 0.00734679 268.48554492 0.00256449 C293.68320244 -0.0027853 318.88085681 -0.00491618 344.07851481 -0.00182325 C346.76259239 -0.00150251 349.44666998 -0.00118967 352.13074756 -0.00088018 C352.79167956 -0.0008011 353.45261157 -0.00072203 354.13357182 -0.00064055 C364.13267216 0.00049892 374.13176976 -0.00084321 384.13086963 -0.00335974 C395.49553484 -0.00615691 406.86019315 -0.00542123 418.22485757 -0.00007899 C424.02940605 0.00255915 429.83394298 0.0035612 435.63849139 0.00027186 C440.94305756 -0.00268882 446.24760139 -0.00110215 451.55216551 0.00424941 C453.48013505 0.00537458 455.40810646 0.00478023 457.33607483 0.00237362 C459.93885342 -0.00062829 462.54155353 0.00241194 465.14432788 0.00709444 C465.90829214 0.00475328 466.6722564 0.00241211 467.45937109 0 C472.6155352 0.01878524 472.6155352 0.01878524 473.72968554 1.13293558 C473.82959891 3.58434368 473.86410394 6.00763719 473.85666919 8.45959574 C473.85822918 9.23561955 473.85978917 10.01164335 473.86139643 10.81118304 C473.8654095 13.4314736 473.86221561 16.05170701 473.85908008 18.67199808 C473.86043398 20.54242079 473.86221385 22.41284324 473.86439013 24.28326517 C473.86896575 29.37815855 473.86717438 34.47303177 473.86401105 39.56792551 C473.86148811 44.88728491 473.8638248 50.20664253 473.86539721 55.52600199 C473.8672191 64.46073823 473.8648121 73.39546622 473.86005664 82.33020121 C473.85461398 92.67587101 473.85637663 103.0215211 473.86188304 113.36719042 C473.86641363 122.23254732 473.86706499 131.09789826 473.86444438 139.96325594 C473.8628813 145.26568906 473.86268867 150.56811291 473.86598086 155.87054545 C473.86885878 160.85432207 473.86688535 165.83807317 473.86108661 170.82184702 C473.85975858 172.65651761 473.86015384 174.49119033 473.86234927 176.32586008 C473.86505912 178.81936138 473.8616817 181.31277951 473.85666919 183.80627543 C473.85889991 184.54196064 473.86113063 185.27764586 473.86342895 186.03562456 C473.8438354 191.01878573 473.8438354 191.01878573 472.72968554 192.13293558 C469.7746616 192.02880968 466.84526461 191.86119762 463.89667773 191.6558848 C410.52723472 184.93356032 410.52723472 184.93356032 362.26670337 199.88299662 C353.44140903 209.47970032 347.95614379 221.53178927 344.51848865 234.02620035 C343.59390286 236.49558397 342.51539619 238.19318291 340.72968554 240.13293558 C337.60468554 240.44543558 337.60468554 240.44543558 334.72968554 240.13293558 C333.72968554 239.13293558 333.72968554 239.13293558 333.60943103 237.22837931 C333.61165164 236.39564997 333.61387225 235.56292063 333.61616015 234.70495707 C333.61623569 233.76405726 333.61631122 232.82315745 333.61638904 231.85374552 C333.62413096 230.31938601 333.62413096 230.31938601 333.63202929 228.75402933 C333.63415172 227.19133059 333.63415172 227.19133059 333.63631701 225.59706217 C333.64193475 222.25482464 333.65449024 218.91265302 333.66718554 215.57043558 C333.67219826 213.31067092 333.67676156 211.05090522 333.68085742 208.79113871 C333.69190993 203.23838168 333.7086653 197.68566334 333.72968554 192.13293558 C333.13970973 192.1333153 332.54973392 192.13369502 331.94188005 192.13408625 C297.01188733 192.15644131 262.08189584 192.17361048 227.15189746 192.18400091 C222.96225064 192.18525169 218.77260383 192.18654601 214.58295703 192.18786722 C213.74883782 192.18812953 212.91471861 192.18839185 212.05532306 192.1886621 C198.53125629 192.19301904 185.00719376 192.20090671 171.48312951 192.21008838 C157.61674278 192.21942427 143.75035827 192.22499106 129.88396853 192.22702408 C121.32063181 192.22839944 112.75730705 192.23275075 104.19397401 192.24085205 C98.32991972 192.24611871 92.46587166 192.24774006 86.60181517 192.24643696 C83.21341222 192.24579345 79.82503023 192.2468125 76.43663096 192.25214106 C72.77168987 192.25707075 69.10680115 192.25593656 65.44185901 192.2531901 C64.35919727 192.25610294 63.27653554 192.25901578 62.16106588 192.26201689 C60.70027826 192.25903032 60.70027826 192.25903032 59.20997977 192.25598341 C58.36282372 192.25636313 57.51566766 192.25674285 56.64284021 192.25713408 C54.72968554 192.13293558 54.72968554 192.13293558 53.72968554 191.13293558 C53.54218554 188.69543558 53.54218554 188.69543558 53.72968554 186.13293558 C56.22307388 183.63954725 56.96572859 183.88255072 60.40552783 183.8812533 C61.39756087 183.87603781 62.38959392 183.87082231 63.41168857 183.86544877 C64.50952796 183.86991022 65.60736735 183.87437166 66.73847461 183.8789683 C68.47851449 183.87428833 68.47851449 183.87428833 70.25370669 183.86951381 C73.48342463 183.86289475 76.71299345 183.86530679 79.94270778 183.87148625 C83.42196093 183.87599553 86.9011933 183.86903458 90.38044238 183.8635264 C97.20017289 183.8546144 104.01985948 183.85656243 110.83959174 183.86235169 C116.38014915 183.86686108 121.92069421 183.86748422 127.46125293 183.86530405 C128.64228418 183.86484435 128.64228418 183.86484435 129.84717464 183.86437537 C131.44646812 183.86373594 133.04576159 183.86308752 134.64505506 183.86243019 C149.65581815 183.8567216 164.66655685 183.86329306 179.67731595 183.87403092 C192.56848262 183.88296691 205.45961328 183.88141502 218.35077929 183.8721934 C233.30635555 183.86150008 248.26191041 183.85727097 263.21748996 183.86341792 C264.81103269 183.86405505 266.40457542 183.86468379 267.99811816 183.86530405 C269.17432204 183.86576688 269.17432204 183.86576688 270.37428761 183.86623906 C275.91076823 183.86796882 281.44723533 183.86504485 286.98371387 183.86034495 C293.72713652 183.85474652 300.4705126 183.85623058 307.21392989 183.86690643 C310.65717072 183.87217722 314.10033377 183.87419613 317.54357409 183.86760813 C321.26942711 183.86218503 324.99505783 183.86894737 328.72089648 183.8789683 C329.81873588 183.87450686 330.91657527 183.87004541 332.04768252 183.86544877 C333.03971557 183.87066427 334.03174861 183.87587976 335.05384326 183.8812533 C335.91472426 183.88157801 336.77560527 183.88190271 337.66257358 183.88223726 C339.72968554 184.13293558 339.72968554 184.13293558 341.72968554 186.13293558 C341.97511695 188.78081348 342.1031794 191.33197382 342.14374804 193.98449808 C342.17279727 195.1455456 342.17279727 195.1455456 342.20243335 196.33004862 C342.26228384 198.80589834 342.30863565 201.28179442 342.35468554 203.75793558 C342.39286036 205.43503936 342.4319118 207.11212342 342.47187304 208.78918558 C342.56798963 212.90360912 342.65199993 217.01812444 342.72968554 221.13293558 C343.45147998 220.04762552 344.17327441 218.96231547 344.9169414 217.84411722 C347.58635282 213.83097374 350.25727369 209.81883684 352.92866015 205.80700785 C354.08630148 204.06802607 355.24352909 202.32876882 356.40033984 200.58923441 C358.05982423 198.09396689 359.72077693 195.59968254 361.38202929 193.10559183 C361.90183871 192.32329706 362.42164813 191.5410023 362.95720935 190.73500162 C363.43763186 190.01433008 363.91805438 189.29365855 364.41303515 188.55114847 C364.83717196 187.91383295 365.26130877 187.27651743 365.69829822 186.61988932 C366.72968554 185.13293558 366.72968554 185.13293558 367.72968554 184.13293558 C370.77374278 184.03762474 373.79497166 184.00743226 376.83930469 184.01941019 C377.81081942 184.01928966 378.78233415 184.01916912 379.78328872 184.01904494 C382.9438293 184.01979433 386.1043117 184.02742376 389.26484179 184.03527933 C391.2097878 184.03674867 393.15473419 184.03776943 395.09968066 184.03833109 C402.33052163 184.04358493 409.56135415 184.05754599 416.79218554 184.07043558 C441.01624804 184.10137308 441.01624804 184.10137308 465.72968554 184.13293558 C465.72968554 126.05293558 465.72968554 67.97293558 465.72968554 8.13293558 C312.60968554 8.13293558 159.48968554 8.13293558 1.72968554 8.13293558 C1.72968554 66.21293558 1.72968554 124.29293558 1.72968554 184.13293558 C15.58968554 184.13293558 29.44968554 184.13293558 43.72968554 184.13293558 C45.72968554 186.13293558 45.72968554 186.13293558 45.91718554 188.69543558 C45.72968554 191.13293558 45.72968554 191.13293558 44.72968554 192.13293558 C43.16969506 192.23140525 41.6052801 192.26092176 40.04218554 192.26233011 C39.04445117 192.26548228 38.04671679 192.26863444 37.01874804 192.27188212 C35.93335742 192.26985789 34.84796679 192.26783365 33.72968554 192.26574808 C32.62366992 192.26670481 31.51765429 192.26766154 30.37812304 192.26864725 C28.03437247 192.26932925 25.69062002 192.26747362 23.34687304 192.26330668 C19.74526767 192.25795872 16.14378701 192.26325105 12.54218554 192.26965433 C10.27135193 192.26899356 8.0005184 192.2677124 5.72968554 192.26574808 C4.64429492 192.26777231 3.55890429 192.26979655 2.44062304 192.27188212 C1.44288867 192.26872996 0.44515429 192.2655778 -0.58281446 192.26233011 C-1.46582227 192.26153452 -2.34883008 192.26073893 -3.25859571 192.25991923 C-5.27031446 192.13293558 -5.27031446 192.13293558 -6.27031446 191.13293558 C-6.37022782 188.68152749 -6.40473285 186.25823398 -6.3972981 183.80627543 C-6.39885809 183.03025162 -6.40041808 182.25422781 -6.40202534 181.45468813 C-6.40603841 178.83439757 -6.40284452 176.21416416 -6.39970899 173.59387308 C-6.40106289 171.72345037 -6.40284276 169.85302793 -6.40501904 167.98260599 C-6.40959466 162.88771262 -6.40780329 157.7928394 -6.40463996 152.69794565 C-6.40211702 147.37858626 -6.40445371 142.05922864 -6.40602612 136.73986918 C-6.40784801 127.80513294 -6.40544101 118.87040495 -6.40068555 109.93566996 C-6.39524289 99.59000016 -6.39700554 89.24435007 -6.40251195 78.89868075 C-6.40704254 70.03332385 -6.4076939 61.1679729 -6.40507329 52.30261523 C-6.40351021 47.0001821 -6.40331758 41.69775826 -6.40660977 36.39532572 C-6.40948769 31.4115491 -6.40751426 26.427798 -6.40171552 21.44402415 C-6.40038749 19.60935356 -6.40078275 17.77468084 -6.40297818 15.94001108 C-6.40568803 13.44650979 -6.40231061 10.95309165 -6.3972981 8.45959574 C-6.39952882 7.72391052 -6.40175954 6.98822531 -6.40405786 6.2302466 C-6.38034654 0.19982769 -6.01056049 0.02189803 0 0 Z " fill="#000000" transform="translate(22.27031445503235,19.86706441640854)"/>
<path d="M0 0 C6.04812755 0.3319727 9.18527429 2.13988582 13.5859375 6.23828125 C18.28740234 11.68386282 17.71640077 17.23404267 17.21484375 24.125 C16.68059608 28.03765446 16.0104086 31.92421046 15.2824707 35.80517578 C14.50829176 39.97976916 14.05215421 43.8543996 14.21484375 48.125 C15.27703125 48.06699219 16.33921875 48.00898437 17.43359375 47.94921875 C31.25090084 47.41841204 31.25090084 47.41841204 36.734375 51.69140625 C43.19961456 57.95194165 43.43810808 62.90983875 43.65966797 71.60205078 C44.05710824 97.38891097 44.05710824 97.38891097 36.21484375 108.125 C31.60922075 112.79157977 27.04942289 114.56076117 20.83984375 116.4375 C20.00839844 116.70111328 19.17695313 116.96472656 18.3203125 117.23632812 C16.2890662 117.87838874 14.25246339 118.50346194 12.21484375 119.125 C12.16585937 120.18460937 12.116875 121.24421875 12.06640625 122.3359375 C11.99137666 123.72398497 11.9158289 125.11200451 11.83984375 126.5 C11.7934375 127.54800781 11.7934375 127.54800781 11.74609375 128.6171875 C11.44140625 133.8984375 11.44140625 133.8984375 9.21484375 136.125 C6.58984375 135.75 6.58984375 135.75 4.21484375 135.125 C3.88484375 134.135 3.55484375 133.145 3.21484375 132.125 C-1.44351156 132.27054176 -1.44351156 132.27054176 -5.11889648 134.64526367 C-7.65134298 136.89422458 -9.80282702 136.4969537 -13.1328125 136.48828125 C-14.37740234 136.48763672 -15.62199219 136.48699219 -16.90429688 136.48632812 C-18.20560547 136.47021484 -19.50691406 136.45410156 -20.84765625 136.4375 C-22.15283203 136.44072266 -23.45800781 136.44394531 -24.80273438 136.44726562 C-34.51829298 136.39186327 -34.51829298 136.39186327 -36.78515625 134.125 C-37.33101632 131.30104183 -37.74591226 128.53835185 -38.09765625 125.6875 C-38.27615112 124.30751831 -38.27615112 124.30751831 -38.45825195 122.8996582 C-38.82292723 120.02954945 -39.17616082 117.15825721 -39.52355957 114.28601074 C-39.8169149 111.86264657 -40.11313135 109.43963818 -40.40917969 107.01660156 C-40.98943346 102.25334832 -41.56073734 97.4890793 -42.1265564 92.72409058 C-42.35615797 90.7925504 -42.58712183 88.86117164 -42.81948853 86.92996216 C-43.15077319 84.16616357 -43.47477452 81.40160102 -43.796875 78.63671875 C-43.89672699 77.81229279 -43.99657898 76.98786682 -44.09945679 76.13845825 C-45.0452484 67.88600819 -45.10719785 60.26203124 -43.359375 52.125 C-43.21111771 51.40441406 -43.06286041 50.68382812 -42.91011047 49.94140625 C-42.59741083 48.431403 -42.2804061 46.92228524 -41.95922852 45.4140625 C-41.47421788 43.13234665 -41.00463535 40.84785533 -40.53710938 38.5625 C-36.43328399 18.77312774 -36.43328399 18.77312774 -33.78515625 16.125 C-25.4983638 16.80424528 -25.4983638 16.80424528 -21.78515625 19.125 C-21.66140625 17.92875 -21.53765625 16.7325 -21.41015625 15.5 C-20.30975057 6.64959432 -20.30975057 6.64959432 -17.78515625 4.125 C-15.82421875 4.17578125 -15.82421875 4.17578125 -13.41015625 4.4375 C-12.61867188 4.51613281 -11.8271875 4.59476563 -11.01171875 4.67578125 C-8.78515625 5.125 -8.78515625 5.125 -5.78515625 7.125 C-5.31078125 6.155625 -4.83640625 5.18625 -4.34765625 4.1875 C-2.29309864 0.16056708 -2.29309864 0.16056708 0 0 Z " fill="#F19D00" transform="translate(292.78515625,43.875)"/>
<path d="M0 0 C6.79976471 0.91304261 11.66376593 5.30979107 16.0625 10.375 C18.168891 16.27289481 17.35525751 21.34128725 15 27 C15.71552536 27.00586624 16.43105072 27.01173248 17.16825867 27.01777649 C23.92162426 27.07575464 30.67467535 27.14786036 37.42772198 27.23571491 C40.89930066 27.28038373 44.37076294 27.31964707 47.8425293 27.34643555 C51.8367256 27.37749455 55.83029368 27.43228188 59.82421875 27.48828125 C61.06709152 27.49467117 62.30996429 27.5010611 63.59049988 27.50764465 C65.33173882 27.53733589 65.33173882 27.53733589 67.1081543 27.56762695 C68.12741501 27.57873001 69.14667572 27.58983307 70.19682312 27.60127258 C74.57505135 28.22403729 77.19318099 30.21498691 80.3125 33.25 C82.49381184 36.80473041 82.51379023 38.88967819 82 43 C80.48007896 46.18459646 78.71704041 48.73579966 76 51 C73.17588235 51.94137255 71.47081968 52.11725382 68.55078125 52.09765625 C67.70322266 52.09443359 66.85566406 52.09121094 65.98242188 52.08789062 C65.10134766 52.07951172 64.22027344 52.07113281 63.3125 52.0625 C61.97348633 52.05573242 61.97348633 52.05573242 60.60742188 52.04882812 C58.40488013 52.03704983 56.20247401 52.02060164 54 52 C54.03222656 53.10859375 54.06445312 54.2171875 54.09765625 55.359375 C54 59 54 59 52.4375 61.25 C50.71614009 64.54303634 51.06467699 65.82096225 51.5625 69.4375 C52.02490339 73.1218109 52.30234903 75.4503927 50.25 78.625 C48 81 48 81 45 82 C45.10699219 82.59167969 45.21398437 83.18335938 45.32421875 83.79296875 C46.30277942 90.24305145 46.30277942 90.24305145 44.875 93.8125 C39.82048481 99.70943438 39.82048481 99.70943438 35.51226807 100.39706421 C32.31744667 100.58064131 29.14546897 100.63300805 25.9453125 100.63671875 C24.77040253 100.64766068 23.59549255 100.6586026 22.38497925 100.6698761 C19.90204247 100.68572937 17.41901816 100.69094112 14.93603516 100.6862793 C11.14467502 100.6874937 7.35717471 100.74726069 3.56640625 100.81054688 C1.15105109 100.8186892 -1.26431877 100.82336095 -3.6796875 100.82421875 C-5.37374222 100.85958992 -5.37374222 100.85958992 -7.10202026 100.89567566 C-14.93111604 100.80460521 -14.93111604 100.80460521 -18.10508728 98.41539001 C-19.26789808 97.16782065 -20.40081663 95.89148836 -21.49694824 94.58494568 C-23.01352201 92.71402913 -23.01352201 92.71402913 -26.05786133 92.14526367 C-27.0558374 92.15275635 -28.05381348 92.16024902 -29.08203125 92.16796875 C-30.72655273 92.14766602 -30.72655273 92.14766602 -32.40429688 92.12695312 C-33.52900391 92.14693359 -34.65371094 92.16691406 -35.8125 92.1875 C-38.06901945 92.18877128 -40.32555918 92.18264716 -42.58203125 92.16796875 C-43.57436768 92.18110107 -44.5667041 92.1942334 -45.58911133 92.20776367 C-48 92 -48 92 -50 90 C-49.625 87.375 -49.625 87.375 -49 85 C-47.515 84.505 -47.515 84.505 -46 84 C-46 81.36 -46 78.72 -46 76 C-47.32 75.34 -48.64 74.68 -50 74 C-50.04936158 68.90968245 -50.08570105 63.81950357 -50.10986328 58.72900391 C-50.11993376 56.99655735 -50.13359089 55.26412784 -50.15087891 53.53173828 C-50.17508162 51.04455361 -50.18647239 48.55759325 -50.1953125 46.0703125 C-50.20563507 45.29317902 -50.21595764 44.51604553 -50.22659302 43.71536255 C-50.22699271 41.80874507 -50.1223214 39.90268964 -50 38 C-48 36 -48 36 -45.66162109 35.77294922 C-44.70852051 35.78342285 -43.75541992 35.79389648 -42.7734375 35.8046875 C-41.2265625 35.81435547 -41.2265625 35.81435547 -39.6484375 35.82421875 C-38.56820313 35.84097656 -37.48796875 35.85773438 -36.375 35.875 C-35.28703125 35.88402344 -34.1990625 35.89304688 -33.078125 35.90234375 C-30.38519848 35.92596591 -27.69270745 35.95890444 -25 36 C-24.85884766 34.42992188 -24.85884766 34.42992188 -24.71484375 32.828125 C-22.98644278 23.57220725 -14.56454229 16.21853545 -8.34375 9.52734375 C-5.46784087 6.42615508 -2.72836728 3.23096125 0 0 Z " fill="#F39F00" transform="translate(398,64)"/>
<path d="M0 0 C7.73648105 -0.11598804 15.47287165 -0.20476267 23.21002483 -0.25906086 C26.8030086 -0.28512544 30.39539636 -0.32046329 33.98803711 -0.37719727 C37.45698186 -0.43163335 40.92535439 -0.46144416 44.39469337 -0.47438622 C46.35851051 -0.48808449 48.32209825 -0.52710018 50.28556824 -0.56648254 C59.09211445 -0.56925207 59.09211445 -0.56925207 63.08422852 1.93383789 C65.61987811 5.99210516 67.49027086 10.10960169 69.265625 14.546875 C69.65666916 15.49523727 70.04771332 16.44359955 70.4506073 17.42070007 C71.29097547 19.4634015 72.12560458 21.5084716 72.95504761 23.55563354 C74.25979912 26.77417231 75.58097458 29.98552049 76.90649414 33.19555664 C80.89661213 42.87528481 84.83730764 52.57425911 88.72805786 62.29434204 C90.25854979 66.11105316 91.80257912 69.92220975 93.3482666 73.73278809 C94.42435753 76.40486548 95.47750212 79.08526815 96.53027344 81.76660156 C97.18443552 83.38521522 97.83964725 85.00340521 98.49609375 86.62109375 C98.77865524 87.36042648 99.06121674 88.09975922 99.3523407 88.86149597 C100.23542877 91.12402754 100.23542877 91.12402754 102 94 C104.59689873 95.07972902 104.59689873 95.07972902 107 95 C109.42897029 88.8177031 111.33330155 82.59114115 113.1015625 76.19140625 C113.5244606 74.68041603 113.5244606 74.68041603 113.9559021 73.13890076 C114.8489371 69.94768722 115.73749446 66.75525542 116.625 63.5625 C117.80091192 59.33356998 118.98117348 55.10588923 120.1640625 50.87890625 C120.56874252 49.41500206 120.56874252 49.41500206 120.9815979 47.92152405 C121.23210907 47.02646652 121.48262024 46.131409 121.74072266 45.20922852 C122.07023422 44.0229763 122.07023422 44.0229763 122.40640259 42.8127594 C123 41 123 41 124 40 C126.29151417 39.91209025 128.58572524 39.89305962 130.87890625 39.90234375 C131.90889992 39.90446617 131.90889992 39.90446617 132.95970154 39.90663147 C135.16067801 39.91224521 137.36155409 39.92479993 139.5625 39.9375 C141.05143083 39.94251324 142.54036324 39.94707645 144.02929688 39.95117188 C147.68623075 39.96221907 151.34310558 39.97949287 155 40 C153.85698015 47.30750407 152.1569102 54.09790804 149.6875 61.0625 C147.41369334 67.66311643 145.2967964 74.25368097 143.5 81 C140.98418136 90.38269717 137.92754426 99.56081701 134.76513672 108.74316406 C134.11860199 110.65017332 133.51003606 112.56999197 132.91015625 114.4921875 C130.14201593 123.06985835 125.9512132 128.71912078 117.875 132.9375 C110.34932738 136.48394317 101.83467114 137.63162625 93.86328125 134.94140625 C81.96482892 129.43258704 77.16932365 121.36989809 72.51171875 109.4453125 C72.00419017 108.18100384 71.49541754 106.91719399 70.98551941 105.65383911 C69.29611204 101.44657205 67.64424142 97.22509235 66 93 C65.70724434 92.24780685 65.41448868 91.49561371 65.11286163 90.72062683 C63.56821841 86.74780649 62.02792633 82.77331794 60.49026489 78.79779053 C59.21618511 75.50383665 57.93913906 72.21106154 56.65890503 68.91949463 C56.33963484 68.09862492 56.02036465 67.2777552 55.6914196 66.43201065 C55.04386847 64.76795813 54.3959047 63.10406612 53.74752998 61.44033432 C52.09380773 57.19208013 50.45356722 52.93936147 48.8371582 48.67675781 C47.23814922 44.4623742 45.60662647 40.26194539 43.95209312 36.06906509 C43.33614064 34.49089306 42.73206631 32.90802731 42.14066505 31.32049179 C39.34095942 22.89622715 39.34095942 22.89622715 33.73892212 16.41349792 C31.44266655 15.62001739 29.41230211 15.22658756 27 15 C26.0831543 14.75709229 25.16630859 14.51418457 24.22167969 14.26391602 C23.08327637 14.01146118 23.08327637 14.01146118 21.921875 13.75390625 C21.07109375 13.55603516 20.2203125 13.35816406 19.34375 13.15429688 C17.60056419 12.75656698 15.8557186 12.36604913 14.109375 11.98242188 C9.22837207 10.8328564 5.48899685 9.83383956 2 6 C1.2880762 4.01565906 0.61582788 2.01623423 0 0 Z " fill="#FC97BE" transform="translate(31,324)"/>
<path d="M0 0 C1.22103928 0.00022659 2.44207855 0.00045319 3.70011902 0.00068665 C5.67834404 0.02391243 5.67834404 0.02391243 7.6965332 0.04760742 C9.05987583 0.05320374 10.4232245 0.05747367 11.78657532 0.06047058 C15.37225038 0.07191668 18.95756 0.10138131 22.54309082 0.13458252 C26.20291195 0.16528878 29.86279222 0.17897707 33.52270508 0.1940918 C40.70190801 0.22625168 47.88081 0.27744464 55.05981445 0.34057617 C52.77866035 7.46945097 52.77866035 7.46945097 50.05981445 9.34057617 C47.02880859 10.28857422 47.02880859 10.28857422 43.3449707 11.10229492 C42.00546342 11.41932809 40.66627964 11.73773069 39.32739258 12.05737305 C37.22577238 12.54775927 35.12351011 13.02781766 33.01416016 13.48388672 C30.97039865 13.93111658 28.94005206 14.41954293 26.9074707 14.91479492 C25.08227905 15.32604614 25.08227905 15.32604614 23.22021484 15.74560547 C16.72998638 19.02105256 14.75526548 28.34648881 12.21264648 34.8425293 C11.85106445 35.75743637 11.48948242 36.67234344 11.11694336 37.61497498 C10.3374564 39.58791237 9.55946853 41.56144258 8.78284073 43.5355072 C7.55045769 46.66543153 6.31215203 49.79294977 5.07199097 52.9197998 C1.54809175 61.80559965 -1.97112718 70.69320415 -5.47192383 79.58813477 C-7.61872584 85.04153883 -9.77741228 90.49010835 -11.94375992 95.93577576 C-12.76387606 98.00395513 -13.5795625 100.07389703 -14.39062119 102.14564514 C-15.52729334 105.04788294 -16.67903788 107.94371569 -17.83422852 110.83862305 C-18.16170074 111.68561264 -18.48917297 112.53260223 -18.8265686 113.40525818 C-22.61592154 122.79946373 -27.87520418 129.62181875 -36.94018555 134.34057617 C-39.6053637 135.44049097 -42.08146272 135.99752943 -44.94018555 136.34057617 C-45.77291992 136.4462793 -46.6056543 136.55198242 -47.46362305 136.66088867 C-56.25742529 137.24042292 -63.36525865 134.11735935 -70.11206055 128.54760742 C-74.95681763 123.52686558 -76.95546936 117.9210491 -78.94018555 111.34057617 C-79.52307695 109.48610318 -80.10599292 107.63163786 -80.68945312 105.77734375 C-81.11179431 104.42792823 -81.53082625 103.07747313 -81.94677734 101.72607422 C-83.27439697 97.41595333 -84.67229548 93.13652794 -86.12475586 88.86694336 C-89.23093313 79.73373472 -91.9451835 70.52280749 -94.54956055 61.23510742 C-96.01278292 56.03220308 -97.61562514 50.8825072 -99.27612305 45.73901367 C-99.94018555 43.34057617 -99.94018555 43.34057617 -99.94018555 40.34057617 C-89.71018555 40.34057617 -79.48018555 40.34057617 -68.94018555 40.34057617 C-65.56518555 49.34057617 -65.56518555 49.34057617 -64.40625 53.47143555 C-64.01618523 54.85196106 -64.01618523 54.85196106 -63.61824036 56.26037598 C-63.34936508 57.22527954 -63.08048981 58.19018311 -62.8034668 59.18432617 C-62.37701118 60.6988739 -62.37701118 60.6988739 -61.94194031 62.24401855 C-61.04228012 65.4419707 -60.14741099 68.64124029 -59.25268555 71.84057617 C-58.64037238 74.02035275 -58.02774537 76.2000412 -57.41479492 78.37963867 C-55.91962667 83.69893709 -54.42838062 89.0193229 -52.94018555 94.34057617 C-51.29018555 94.67057617 -49.64018555 95.00057617 -47.94018555 95.34057617 C-43.34965595 85.68661235 -39.19722252 75.88762303 -35.13458252 66.00323486 C-33.28544139 61.50718663 -31.42418612 57.01614819 -29.56518555 52.52416992 C-28.79560048 50.66335233 -28.02606945 48.8025124 -27.2565918 46.94165039 C-26.68303955 45.55487091 -26.68303955 45.55487091 -26.09790039 44.14007568 C-25.32720031 42.27642634 -24.55669193 40.41269771 -23.78637695 38.54888916 C-21.57068196 33.18969458 -19.34751308 27.83371808 -17.11346436 22.48214722 C-16.4175619 20.81151536 -15.7243807 19.13974723 -15.03399658 17.46682739 C-14.07470445 15.14316524 -13.10626185 12.82352697 -12.13549805 10.50463867 C-11.71469971 9.47627647 -11.71469971 9.47627647 -11.28540039 8.42713928 C-8.59152713 2.0462821 -7.08553604 -0.04382806 0 0 Z " fill="#FC97BE" transform="translate(425.940185546875,323.659423828125)"/>
<path d="M0 0 C4.13786746 1.82836004 6.4835004 4.27386434 9 8 C9.48101807 11.03096008 9.48101807 11.03096008 9.45410156 14.44262695 C9.45379944 15.72357742 9.45349731 17.00452789 9.45318604 18.32429504 C9.43276253 19.71229684 9.4118986 21.10029222 9.390625 22.48828125 C9.38315903 23.91602281 9.37746778 25.34377466 9.37347412 26.77153015 C9.35824547 30.51840811 9.31898877 34.26465991 9.2746582 38.0112915 C9.23364496 41.83882172 9.21545027 45.66645372 9.1953125 49.49414062 C9.15249077 56.99637835 9.08427436 64.49810124 9 72 C10.97957357 71.96337891 12.95914714 71.92675781 14.9387207 71.89013672 C18.86015185 72.09914347 21.71452681 73.69715555 24.4453125 76.46484375 C28.5861341 81.30368957 29.18171554 84.31062347 29.1875 90.5 C29.19974609 91.18964844 29.21199219 91.87929687 29.22460938 92.58984375 C29.22988695 94.39477494 29.12184458 96.19917842 29 98 C26.03465606 100.96534394 22.72634402 100.22995121 18.75 100.25 C17.99847656 100.23839844 17.24695313 100.22679687 16.47265625 100.21484375 C12.08412539 100.26945615 12.08412539 100.26945615 8.36132812 102.34960938 C7.39088562 103.42830842 6.43435985 104.51971335 5.49316406 105.62402344 C3.00754222 107.91456705 0.25028067 107.86998877 -3 108 C-2.98428955 108.98395752 -2.98428955 108.98395752 -2.96826172 109.98779297 C-2.92677497 112.95015658 -2.90069738 115.91245916 -2.875 118.875 C-2.85824219 119.90753906 -2.84148437 120.94007813 -2.82421875 122.00390625 C-2.81455078 123.48310547 -2.81455078 123.48310547 -2.8046875 124.9921875 C-2.78897705 126.35899658 -2.78897705 126.35899658 -2.77294922 127.75341797 C-3 130 -3 130 -5 132 C-9.55555556 131.44444444 -9.55555556 131.44444444 -11 130 C-11.2541555 125.35984675 -11.18522798 120.70878694 -11.1875 116.0625 C-11.19974609 114.74830078 -11.21199219 113.43410156 -11.22460938 112.08007812 C-11.22654297 110.82775391 -11.22847656 109.57542969 -11.23046875 108.28515625 C-11.23457764 107.12894775 -11.23868652 105.97273926 -11.24291992 104.78149414 C-11 102 -11 102 -9 100 C-7.1171875 99.83203125 -7.1171875 99.83203125 -4.875 99.8125 C-0.70100227 99.48123034 0.89859953 98.45877113 3.75 95.4375 C6.40637916 92.79191913 7.61068146 92.05292579 11.390625 91.5390625 C14.62030812 91.56003447 17.78578743 91.691318 21 92 C20.77139942 90.53815942 20.51629608 89.08044581 20.25 87.625 C20.11078125 86.81289062 19.9715625 86.00078125 19.828125 85.1640625 C19.20116994 82.88406323 19.20116994 82.88406323 17.24609375 81.87695312 C14.73276179 80.89566091 12.9245927 80.77019753 10.234375 80.8046875 C9.34492188 80.81113281 8.45546875 80.81757813 7.5390625 80.82421875 C6.61867188 80.84097656 5.69828125 80.85773438 4.75 80.875 C3.34621094 80.88853516 3.34621094 80.88853516 1.9140625 80.90234375 C-0.39088657 80.92586364 -2.6953116 80.95873147 -5 81 C-5.44214844 81.969375 -5.88429687 82.93875 -6.33984375 83.9375 C-8 87 -8 87 -10.5625 88 C-11.366875 88 -12.17125 88 -13 88 C-15 86 -15 86 -15.5 83.3125 C-14.80070743 78.67968672 -12.35404712 76.15419457 -9 73 C-7 72 -7 72 1 72 C0.67 51.54 0.34 31.08 0 10 C-2.475 9.505 -2.475 9.505 -5 9 C-6.21867507 9.9974576 -6.21867507 9.9974576 -6.11784363 11.97134399 C-6.11529068 12.83625458 -6.11273773 13.70116516 -6.11010742 14.59228516 C-6.11068649 15.57065338 -6.11126556 16.54902161 -6.11186218 17.55703735 C-6.10975235 18.62360565 -6.10764252 19.69017395 -6.10546875 20.7890625 C-6.11893045 23.03256167 -6.13395462 25.2760519 -6.15039062 27.51953125 C-6.17319183 31.06818368 -6.18753224 34.61583503 -6.17504883 38.16455078 C-6.16621814 41.58178963 -6.19517939 44.99703031 -6.23046875 48.4140625 C-6.21823776 49.46848541 -6.20600677 50.52290833 -6.19340515 51.60928345 C-6.29427961 57.76601362 -7.09061489 61.29262052 -11.42158508 65.77841187 C-14.98085596 68.53305073 -18.693658 68.22274183 -23 68 C-24.36125 67.443125 -24.36125 67.443125 -25.75 66.875 C-26.4925 66.58625 -27.235 66.2975 -28 66 C-28.99 66.66 -29.98 67.32 -31 68 C-37.5902965 68.8787062 -37.5902965 68.8787062 -41.04296875 66.7265625 C-43.4908331 64.65723387 -45.55683484 62.88633031 -47 60 C-47.15706331 57.15791974 -47.2584957 54.33662693 -47.31640625 51.4921875 C-47.33718735 50.65156769 -47.35796844 49.81094788 -47.37937927 48.94485474 C-47.44485439 46.25498765 -47.5037502 43.56502157 -47.5625 40.875 C-47.60568716 39.05337511 -47.64930152 37.23176029 -47.69335938 35.41015625 C-47.80053368 30.94020606 -47.90180685 26.47015614 -48 22 C-49.65614657 21.61781233 -51.32457024 21.28604898 -53 21 C-54.86582403 22.86582403 -54.17661725 25.99570863 -54.20874023 28.48828125 C-54.21852402 29.16647415 -54.2283078 29.84466705 -54.23838806 30.54341125 C-54.26842448 32.7997541 -54.28976 35.05603679 -54.30859375 37.3125 C-54.31516558 38.0836615 -54.3217374 38.854823 -54.32850838 39.64935303 C-54.36115155 43.73805913 -54.3855799 47.82673879 -54.4050293 51.91552734 C-54.42278385 55.29124352 -54.45750008 58.66611504 -54.50756836 62.04150391 C-54.56801483 66.12116012 -54.5985398 70.20003816 -54.60820198 74.28012085 C-54.61672407 75.83020062 -54.63546182 77.38026146 -54.6649456 78.93008423 C-54.81238193 87.12733574 -54.83861038 93.7216446 -49.38832092 100.31396484 C-47.00853795 103.20407309 -46.87824487 105.85848498 -46.90234375 109.44921875 C-46.90556641 110.29677734 -46.90878906 111.14433594 -46.91210938 112.01757812 C-46.92048828 112.89865234 -46.92886719 113.77972656 -46.9375 114.6875 C-46.94201172 115.58017578 -46.94652344 116.47285156 -46.95117188 117.39257812 C-46.96295017 119.59511987 -46.97939836 121.79752599 -47 124 C-46.22285645 123.98952637 -45.44571289 123.97905273 -44.64501953 123.96826172 C-41.138379 123.92679718 -37.63178994 123.90070422 -34.125 123.875 C-32.90167969 123.85824219 -31.67835938 123.84148437 -30.41796875 123.82421875 C-29.25136719 123.81777344 -28.08476562 123.81132812 -26.8828125 123.8046875 C-25.80402832 123.79421387 -24.72524414 123.78374023 -23.61376953 123.77294922 C-21 124 -21 124 -19 126 C-19.55555556 130.55555556 -19.55555556 130.55555556 -21 132 C-23.35228319 132.11317284 -25.67411948 132.16416537 -28.02734375 132.16796875 C-28.73145889 132.17129715 -29.43557404 132.17462555 -30.161026 132.17805481 C-31.65316106 132.18312655 -33.1453075 132.18546306 -34.63745117 132.18530273 C-36.92450607 132.18748759 -39.21107753 132.20563549 -41.49804688 132.22460938 C-42.94531084 132.22754354 -44.39257711 132.22952818 -45.83984375 132.23046875 C-46.52634506 132.23765427 -47.21284637 132.24483978 -47.92015076 132.25224304 C-52.77117631 132.22882369 -52.77117631 132.22882369 -55 130 C-55.22363281 127.71264648 -55.22363281 127.71264648 -55.203125 124.87109375 C-55.21472656 123.83533203 -55.22632813 122.79957031 -55.23828125 121.73242188 C-55.2459965 119.56315069 -55.23857919 117.39376442 -55.21484375 115.22460938 C-55.34016808 107.41111968 -57.14621458 103.05695559 -62 97 C-63.48630893 94.02738215 -63.16844186 91.31624669 -63.20874023 87.99926758 C-63.21852402 87.27870178 -63.2283078 86.55813599 -63.23838806 85.81573486 C-63.26835852 83.42535246 -63.2897352 81.03502624 -63.30859375 78.64453125 C-63.31516558 77.82766027 -63.3217374 77.0107893 -63.32850838 76.16916466 C-63.36111373 71.8428559 -63.38555826 67.51657186 -63.4050293 63.19018555 C-63.42282342 59.61364753 -63.45761004 56.0379008 -63.50756836 52.46166992 C-63.56785604 48.14097415 -63.598517 43.82101052 -63.60820198 39.49991417 C-63.61674579 37.85608086 -63.6355377 36.21226653 -63.6649456 34.56867409 C-63.90998582 20.09049734 -63.90998582 20.09049734 -60.08618164 15.4987793 C-55.71398717 11.95875791 -53.63568946 11.61791936 -48 12 C-43.88554529 13.81801487 -41.3004961 16.13845298 -39 20 C-38.3875913 23.32742062 -38.13118991 26.62185983 -38 30 C-36.6696875 29.9690625 -36.6696875 29.9690625 -35.3125 29.9375 C-32 30 -32 30 -29.375 30.6875 C-28.59125 30.790625 -27.8075 30.89375 -27 31 C-26.401875 30.525625 -25.80375 30.05125 -25.1875 29.5625 C-22.68069233 27.77192309 -21.85270128 27.82677702 -18.86328125 27.90234375 C-16.95095703 27.95068359 -16.95095703 27.95068359 -15 28 C-15.0314209 27.43079834 -15.0628418 26.86159668 -15.09521484 26.27514648 C-15.22095382 23.6630121 -15.29827838 21.05151506 -15.375 18.4375 C-15.42527344 17.54224609 -15.47554687 16.64699219 -15.52734375 15.72460938 C-15.63588597 10.78593817 -15.34682352 7.76994542 -12.1015625 3.91015625 C-8.24105734 -0.04947158 -5.56762602 -0.37746617 0 0 Z " fill="#030200" transform="translate(211,48)"/>
<path d="M0 0 C1.03447266 -0.01836914 1.03447266 -0.01836914 2.08984375 -0.03710938 C3.89477494 -0.04238695 5.69917842 0.06565542 7.5 0.1875 C10.09404286 2.78154286 9.66302294 4.48044811 9.67602539 8.00292969 C9.60179039 16.72512566 9.60179039 16.72512566 14.0625 23.9375 C14.70316406 24.46859375 15.34382813 24.9996875 16.00390625 25.546875 C18.03671878 27.77606889 17.61412965 29.26125161 17.5 32.1875 C18.48395752 32.17178955 18.48395752 32.17178955 19.48779297 32.15576172 C22.45015658 32.11427497 25.41245916 32.08819738 28.375 32.0625 C29.40753906 32.04574219 30.44007812 32.02898437 31.50390625 32.01171875 C32.49003906 32.00527344 33.47617188 31.99882813 34.4921875 31.9921875 C35.85899658 31.97647705 35.85899658 31.97647705 37.25341797 31.96044922 C39.5 32.1875 39.5 32.1875 41.5 34.1875 C41.69973733 36.88885323 41.77981573 39.48547211 41.765625 42.1875 C41.76753845 42.97898438 41.7694519 43.77046875 41.77142334 44.5859375 C41.77278518 46.2604199 41.76908882 47.93491285 41.76074219 49.609375 C41.7500424 52.17732381 41.76063725 54.74457303 41.7734375 57.3125 C41.7721159 58.93750155 41.76955351 60.56250266 41.765625 62.1875 C41.76967346 62.95835937 41.77372192 63.72921875 41.77789307 64.5234375 C41.72992132 69.95757868 41.72992132 69.95757868 39.5 72.1875 C34.94444444 71.63194444 34.94444444 71.63194444 33.5 70.1875 C33.41216458 67.96894736 33.39305391 65.74761504 33.40234375 63.52734375 C33.4037587 62.86287735 33.40517365 62.19841095 33.40663147 61.5138092 C33.41224482 59.38416101 33.42479946 57.25461661 33.4375 55.125 C33.44251329 53.68424631 33.44707649 52.24349097 33.45117188 50.80273438 C33.46221855 47.26428898 33.47949208 43.72590461 33.5 40.1875 C32.51604248 40.20321045 32.51604248 40.20321045 31.51220703 40.21923828 C28.54984342 40.26072503 25.58754084 40.28680262 22.625 40.3125 C21.59246094 40.32925781 20.55992188 40.34601563 19.49609375 40.36328125 C18.01689453 40.37294922 18.01689453 40.37294922 16.5078125 40.3828125 C15.14100342 40.39852295 15.14100342 40.39852295 13.74658203 40.41455078 C11.5 40.1875 11.5 40.1875 9.5 38.1875 C9.296875 36.234375 9.296875 36.234375 9.25 33.9375 C8.79352686 28.47737897 6.5283486 26.71230502 2.5 23.1875 C1.40493508 19.90230525 1.40039392 17.45086585 1.4375 14 C1.44652344 12.91332031 1.45554688 11.82664062 1.46484375 10.70703125 C1.47644531 9.87558594 1.48804688 9.04414062 1.5 8.1875 C0.03890937 8.44304054 -1.41888096 8.71750372 -2.875 9 C-4.09316406 9.22623047 -4.09316406 9.22623047 -5.3359375 9.45703125 C-7.85820641 10.06294942 -7.85820641 10.06294942 -9.5 13.1875 C-9.80869781 15.83431491 -9.80869781 15.83431491 -9.765625 18.80859375 C-9.76820312 19.90880859 -9.77078125 21.00902344 -9.7734375 22.14257812 C-9.76183594 23.86637695 -9.76183594 23.86637695 -9.75 25.625 C-9.75773437 26.77033203 -9.76546875 27.91566406 -9.7734375 29.09570312 C-9.76957031 30.74795898 -9.76957031 30.74795898 -9.765625 32.43359375 C-9.76336914 33.44091553 -9.76111328 34.4482373 -9.75878906 35.48608398 C-9.49493164 38.24040701 -9.00118194 39.8803924 -7.5 42.1875 C-5.59072445 43.12345714 -5.59072445 43.12345714 -3.4375 43.625 C-1.28515625 44.3359375 -1.28515625 44.3359375 0.5 45.1875 C1.625 47.75 1.625 47.75 1.5 50.1875 C-0.5 52.1875 -0.5 52.1875 -3.75 52.5625 C-9.29236946 52.00826305 -12.14325921 49.69091547 -15.8125 45.625 C-18.93738019 41.11128417 -18.58657009 37.46827546 -18.5 32.1875 C-19.82 32.1875 -21.14 32.1875 -22.5 32.1875 C-22.45875 33.404375 -22.4175 34.62125 -22.375 35.875 C-22.34965061 39.46193898 -23.16895481 41.85988702 -24.5 45.1875 C-23.84 46.1775 -23.18 47.1675 -22.5 48.1875 C-22.21005387 52.02928618 -22.36030843 54.78394656 -23.625 58.4375 C-24.058125 59.79875 -24.058125 59.79875 -24.5 61.1875 C-23.84 62.1775 -23.18 63.1675 -22.5 64.1875 C-22.16541386 69.37358515 -22.57722323 72.38055808 -24.5 77.1875 C-23.51 78.6725 -23.51 78.6725 -22.5 80.1875 C-22.24239721 82.88202521 -22.41099947 85.47298375 -22.5 88.1875 C-18.51941782 88.19382197 -14.54238952 88.13376831 -10.5625 88.0625 C-8.88704102 88.06636719 -8.88704102 88.06636719 -7.17773438 88.0703125 C-0.19235499 87.90643263 4.16082082 86.92541162 9.69750977 82.56689453 C14.5694336 78.83854973 21.24194685 80.00323904 27.0625 80 C28.22458984 79.98775391 29.38667969 79.97550781 30.58398438 79.96289062 C32.2459082 79.95999023 32.2459082 79.95999023 33.94140625 79.95703125 C35.46809937 79.95086792 35.46809937 79.95086792 37.02563477 79.94458008 C39.5 80.1875 39.5 80.1875 41.5 82.1875 C40.94444444 86.74305556 40.94444444 86.74305556 39.5 88.1875 C37.82469589 88.27235649 36.14619957 88.29569188 34.46875 88.29296875 C33.42976563 88.30779297 32.39078125 88.32261719 31.3203125 88.33789062 C29.1381509 88.36227949 26.95568701 88.36804634 24.7734375 88.35351562 C16.95526026 88.51199219 12.56104519 90.3319713 6.5 95.1875 C4.05260128 96.41119936 2.42302625 96.33401006 -0.31347656 96.36450195 C-1.3150177 96.37733719 -2.31655884 96.39017242 -3.34844971 96.40339661 C-4.43486755 96.41078354 -5.5212854 96.41817047 -6.640625 96.42578125 C-8.31303253 96.43788887 -8.31303253 96.43788887 -10.01922607 96.45024109 C-12.38308147 96.46409059 -14.74695694 96.47480885 -17.11083984 96.48266602 C-20.72141604 96.49986385 -24.33107325 96.54374186 -27.94140625 96.58789062 C-30.23697243 96.59801865 -32.5325464 96.60653441 -34.828125 96.61328125 C-35.90644592 96.63078934 -36.98476685 96.64829742 -38.09576416 96.66633606 C-44.20998952 96.64869805 -47.87143129 96.32534851 -52.5 92.1875 C-55.41488892 87.75179947 -54.30311288 83.16897046 -53.5 78.1875 C-54.12390625 77.90390625 -54.7478125 77.6203125 -55.390625 77.328125 C-58.28766188 75.76157913 -59.14604098 74.16620985 -60.5 71.1875 C-60.76190983 68.044582 -60.61102427 65.61141085 -59.8125 62.5625 C-59.6578125 61.386875 -59.6578125 61.386875 -59.5 60.1875 C-59.974375 59.589375 -60.44875 58.99125 -60.9375 58.375 C-63.22835754 55.16779944 -62.97308692 51.95717677 -62.5 48.1875 C-61.5 45.6875 -61.5 45.6875 -60.5 43.1875 C-61.16 42.1975 -61.82 41.2075 -62.5 40.1875 C-63.3787062 33.5972035 -63.3787062 33.5972035 -61.2265625 30.14453125 C-59.15723387 27.6966669 -57.38633031 25.63066516 -54.5 24.1875 C-51.80106819 24.10074462 -49.12830769 24.07192103 -46.4296875 24.08984375 C-45.23534592 24.09196617 -45.23534592 24.09196617 -44.01687622 24.09413147 C-41.4695462 24.09973655 -38.92230353 24.11228986 -36.375 24.125 C-34.64974085 24.13001435 -32.92448033 24.13457737 -31.19921875 24.13867188 C-26.96611209 24.14970763 -22.73307086 24.16697564 -18.5 24.1875 C-18.51957764 23.29039307 -18.53915527 22.39328613 -18.55932617 21.46899414 C-18.58216675 19.70736938 -18.58216675 19.70736938 -18.60546875 17.91015625 C-18.62504639 16.74492432 -18.64462402 15.57969238 -18.66479492 14.37915039 C-18.45025971 10.22415951 -17.34963773 8.1911722 -14.5 5.1875 C-9.5131504 0.79432298 -6.51967111 0.00609315 0 0 Z " fill="#030200" transform="translate(94.5,67.8125)"/>
<path d="M0 0 C6.04812755 0.3319727 9.18527429 2.13988582 13.5859375 6.23828125 C18.28740234 11.68386282 17.71640077 17.23404267 17.21484375 24.125 C16.68059608 28.03765446 16.0104086 31.92421046 15.2824707 35.80517578 C14.50829176 39.97976916 14.05215421 43.8543996 14.21484375 48.125 C15.27703125 48.06699219 16.33921875 48.00898437 17.43359375 47.94921875 C31.25090084 47.41841204 31.25090084 47.41841204 36.734375 51.69140625 C43.19961456 57.95194165 43.43810808 62.90983875 43.65966797 71.60205078 C44.05710824 97.38891097 44.05710824 97.38891097 36.21484375 108.125 C31.60922075 112.79157977 27.04942289 114.56076117 20.83984375 116.4375 C20.00839844 116.70111328 19.17695313 116.96472656 18.3203125 117.23632812 C16.2890662 117.87838874 14.25246339 118.50346194 12.21484375 119.125 C12.16585937 120.18460937 12.116875 121.24421875 12.06640625 122.3359375 C11.99137666 123.72398497 11.9158289 125.11200451 11.83984375 126.5 C11.7934375 127.54800781 11.7934375 127.54800781 11.74609375 128.6171875 C11.44140625 133.8984375 11.44140625 133.8984375 9.21484375 136.125 C4.65928819 135.56944444 4.65928819 135.56944444 3.21484375 134.125 C2.90933601 130.842372 2.93652535 127.54510593 2.90234375 124.25 C2.87333984 123.32574219 2.84433594 122.40148437 2.81445312 121.44921875 C2.80607422 120.56105469 2.79769531 119.67289062 2.7890625 118.7578125 C2.77447998 117.94199707 2.75989746 117.12618164 2.74487305 116.28564453 C3.21484375 114.125 3.21484375 114.125 4.94311523 112.42089844 C7.31544981 111.06760968 9.33615291 110.38738705 11.98828125 109.7578125 C22.43984842 107.27754204 22.43984842 107.27754204 30.89453125 101.1640625 C34.07295675 94.50676332 35.18540203 87.4707092 35.21484375 80.125 C32.24942016 82.92097081 29.96887648 85.45748637 27.83984375 88.9375 C25.79790621 91.86918461 25.52672933 92.06262288 21.77734375 92.8125 C16.59044742 91.81152001 13.68205442 89.51290198 9.90234375 85.9375 C7.59905519 82.09868574 7.4070138 78.53530263 7.21484375 74.125 C8.98513821 72.83259488 10.75609873 71.54110207 12.52734375 70.25 C13.51347656 69.53070313 14.49960937 68.81140625 15.515625 68.0703125 C20.98994415 64.125 20.98994415 64.125 23.52734375 64.125 C26.84053898 65.35781683 28.4661878 67.14272737 30.78515625 69.75 C32.28108304 71.38579745 32.28108304 71.38579745 35.21484375 72.125 C35.11062745 65.41142543 35.11062745 65.41142543 32.27734375 59.5625 C27.34927414 56.12778482 22.05765729 56.41337527 16.21484375 57.125 C14.03047573 58.19813102 14.03047573 58.19813102 12.27734375 59.6875 C9.21484375 62.125 9.21484375 62.125 6.33984375 62 C4.21484375 61.125 4.21484375 61.125 3.21484375 60.125 C3.41187212 50.10328578 5.20562136 40.21000141 6.84179688 30.34765625 C7.33662396 27.27719077 7.79627745 24.20672815 8.21484375 21.125 C8.31265137 20.40924805 8.41045898 19.69349609 8.51123047 18.95605469 C8.72985774 16.9399123 8.72985774 16.9399123 8.21484375 14.125 C6.60067421 12.40744003 4.93691691 10.73435378 3.21484375 9.125 C3.10527344 9.94709961 2.99570312 10.76919922 2.8828125 11.61621094 C1.69725762 20.23558049 0.25930161 28.77452038 -1.38964844 37.31591797 C-1.79256903 39.41359221 -2.18341548 41.51331976 -2.57421875 43.61328125 C-2.831304 44.95586863 -3.08908893 46.29832226 -3.34765625 47.640625 C-3.57582031 48.83977539 -3.80398438 50.03892578 -4.0390625 51.27441406 C-4.78515625 54.125 -4.78515625 54.125 -6.78515625 56.125 C-11.34071181 55.56944444 -11.34071181 55.56944444 -12.78515625 54.125 C-12.73586125 47.30996625 -11.56101353 40.65638014 -10.22265625 34 C-8.20435343 25.08567549 -8.20435343 25.08567549 -8.78515625 16.125 C-10.0881462 15.08577193 -11.42036624 14.08162219 -12.78515625 13.125 C-12.94951172 14.27705933 -12.94951172 14.27705933 -13.1171875 15.45239258 C-14.37557633 23.97657015 -15.98334674 32.38770256 -17.78515625 40.8125 C-18.04554688 42.07255859 -18.3059375 43.33261719 -18.57421875 44.63085938 C-18.82945312 45.82904297 -19.0846875 47.02722656 -19.34765625 48.26171875 C-19.68990234 49.88146606 -19.68990234 49.88146606 -20.0390625 51.53393555 C-20.78515625 54.125 -20.78515625 54.125 -22.78515625 56.125 C-27.34071181 55.56944444 -27.34071181 55.56944444 -28.78515625 54.125 C-28.66731575 48.96721197 -28.09161756 43.85215219 -26.72265625 38.875 C-25.77861891 35.09885064 -25.47526081 31.998693 -25.78515625 28.125 C-26.44515625 27.465 -27.10515625 26.805 -27.78515625 26.125 C-28.85934326 30.10735186 -29.83292668 34.11209451 -30.78515625 38.125 C-30.99930176 39.0207373 -31.21344727 39.91647461 -31.43408203 40.83935547 C-32.15646423 43.9091012 -32.84813844 46.98466021 -33.53515625 50.0625 C-33.77000732 51.04992187 -34.0048584 52.03734375 -34.24682617 53.0546875 C-35.91685762 60.7193324 -35.70500689 67.36940611 -34.78515625 75.125 C-34.59717412 76.83001712 -34.41059787 78.53518958 -34.22509766 80.24047852 C-33.46409532 87.16638256 -32.66896948 94.08831608 -31.86645508 101.00952148 C-31.52164502 103.99159163 -31.18237766 106.97425364 -30.84375 109.95703125 C-30.73751816 110.85927933 -30.63128632 111.7615274 -30.52183533 112.69111633 C-29.93680115 117.8748068 -29.68256996 122.90824102 -29.78515625 128.125 C-28.75575928 128.10928955 -28.75575928 128.10928955 -27.70556641 128.09326172 C-24.60713336 128.05178126 -21.50875864 128.02569931 -18.41015625 128 C-17.32992188 127.98324219 -16.2496875 127.96648437 -15.13671875 127.94921875 C-14.10546875 127.94277344 -13.07421875 127.93632812 -12.01171875 127.9296875 C-10.58206787 127.91397705 -10.58206787 127.91397705 -9.12353516 127.89794922 C-6.78515625 128.125 -6.78515625 128.125 -4.78515625 130.125 C-5.34071181 134.68055556 -5.34071181 134.68055556 -6.78515625 136.125 C-11.4253095 136.3791555 -16.07636931 136.31022798 -20.72265625 136.3125 C-22.03685547 136.32474609 -23.35105469 136.33699219 -24.70507812 136.34960938 C-25.95740234 136.35154297 -27.20972656 136.35347656 -28.5 136.35546875 C-30.23431274 136.36163208 -30.23431274 136.36163208 -32.00366211 136.36791992 C-34.78515625 136.125 -34.78515625 136.125 -36.78515625 134.125 C-37.33101632 131.30104183 -37.74591226 128.53835185 -38.09765625 125.6875 C-38.27615112 124.30751831 -38.27615112 124.30751831 -38.45825195 122.8996582 C-38.82292723 120.02954945 -39.17616082 117.15825721 -39.52355957 114.28601074 C-39.8169149 111.86264657 -40.11313135 109.43963818 -40.40917969 107.01660156 C-40.98943346 102.25334832 -41.56073734 97.4890793 -42.1265564 92.72409058 C-42.35615797 90.7925504 -42.58712183 88.86117164 -42.81948853 86.92996216 C-43.15077319 84.16616357 -43.47477452 81.40160102 -43.796875 78.63671875 C-43.89672699 77.81229279 -43.99657898 76.98786682 -44.09945679 76.13845825 C-45.0452484 67.88600819 -45.10719785 60.26203124 -43.359375 52.125 C-43.21111771 51.40441406 -43.06286041 50.68382812 -42.91011047 49.94140625 C-42.59741083 48.431403 -42.2804061 46.92228524 -41.95922852 45.4140625 C-41.47421788 43.13234665 -41.00463535 40.84785533 -40.53710938 38.5625 C-36.43328399 18.77312774 -36.43328399 18.77312774 -33.78515625 16.125 C-25.4983638 16.80424528 -25.4983638 16.80424528 -21.78515625 19.125 C-21.66140625 17.92875 -21.53765625 16.7325 -21.41015625 15.5 C-20.30975057 6.64959432 -20.30975057 6.64959432 -17.78515625 4.125 C-15.82421875 4.17578125 -15.82421875 4.17578125 -13.41015625 4.4375 C-12.61867188 4.51613281 -11.8271875 4.59476563 -11.01171875 4.67578125 C-8.78515625 5.125 -8.78515625 5.125 -5.78515625 7.125 C-5.31078125 6.155625 -4.83640625 5.18625 -4.34765625 4.1875 C-2.29309864 0.16056708 -2.29309864 0.16056708 0 0 Z " fill="#070500" transform="translate(292.78515625,43.875)"/>
<path d="M0 0 C4.55555556 0.55555556 4.55555556 0.55555556 6 2 C6.09396057 3.93306498 6.11743517 5.86958838 6.11352539 7.80493164 C6.11344986 9.04614273 6.11337433 10.28735382 6.11329651 11.56617737 C6.10818911 12.9308374 6.1029731 14.29549702 6.09765625 15.66015625 C6.095792 17.04878183 6.09436813 18.43740807 6.09336853 19.82603455 C6.08954387 23.48721115 6.07971403 27.1483483 6.06866455 30.80950928 C6.05844932 34.54292263 6.05387067 38.27634234 6.04882812 42.00976562 C6.03809171 49.33986177 6.02101591 56.66992536 6 64 C4.97156982 64.16870605 4.97156982 64.16870605 3.92236328 64.34082031 C2.57247314 64.58203613 2.57247314 64.58203613 1.1953125 64.828125 C0.30344238 64.9818457 -0.58842773 65.13556641 -1.50732422 65.29394531 C-5.67086356 66.47327497 -6.85578913 68.28336783 -9 72 C-9.41990073 75.25276753 -9.41990073 75.25276753 -9 78 C-7.35 78.33 -5.7 78.66 -4 79 C-3.525625 78.030625 -3.05125 77.06125 -2.5625 76.0625 C-1 73 -1 73 0 72 C3.24150779 71.7207056 6.49789302 71.7681682 9.75 71.75 C10.6575 71.729375 11.565 71.70875 12.5 71.6875 C17.45709971 71.65851111 21.02332969 71.66994275 25 75 C26.4783226 77.95664519 26.06032783 80.74229737 26 84 C25.154375 83.99097656 24.30875 83.98195313 23.4375 83.97265625 C15.86951685 84.17045581 12.15501726 84.94251928 6.91796875 90.4140625 C4.05382364 92.78237801 1.40613302 92.84273437 -2.21484375 92.9296875 C-4.02497384 92.79873068 -4.02497384 92.79873068 -5 94 C-5.15806531 95.92478813 -5.251135 97.8549921 -5.31640625 99.78515625 C-5.35830078 100.95498047 -5.40019531 102.12480469 -5.44335938 103.33007812 C-5.48267578 104.56177734 -5.52199219 105.79347656 -5.5625 107.0625 C-5.62727539 108.91584961 -5.62727539 108.91584961 -5.69335938 110.80664062 C-5.79984198 113.87097335 -5.90185424 116.93539073 -6 120 C-7.27875 120.061875 -8.5575 120.12375 -9.875 120.1875 C-10.95394531 120.23970703 -10.95394531 120.23970703 -12.0546875 120.29296875 C-12.69664062 120.19628906 -13.33859375 120.09960938 -14 120 C-14.66 119.01 -15.32 118.02 -16 117 C-18.71004503 116.489395 -18.71004503 116.489395 -21.8828125 116.48828125 C-23.04941406 116.45283203 -24.21601563 116.41738281 -25.41796875 116.38085938 C-26.64128906 116.35830078 -27.86460937 116.33574219 -29.125 116.3125 C-30.35605469 116.27833984 -31.58710938 116.24417969 -32.85546875 116.20898438 C-35.9035551 116.12628436 -38.95134571 116.05720573 -42 116 C-42.02578125 114.70964844 -42.0515625 113.41929687 -42.078125 112.08984375 C-42.13443583 110.37236339 -42.19178248 108.65491678 -42.25 106.9375 C-42.26417969 106.08994141 -42.27835938 105.24238281 -42.29296875 104.36914062 C-42.56554302 97.30946708 -44.50916513 93.49319135 -48.61051941 87.74137878 C-50.36234196 84.28511663 -50.37427138 81.81474201 -50.37231445 77.9465332 C-50.37596512 77.25651215 -50.37961578 76.56649109 -50.38337708 75.8555603 C-50.39144823 73.58704614 -50.37790605 71.31925381 -50.36328125 69.05078125 C-50.3627624 67.47088115 -50.36328105 65.8909804 -50.36479187 64.31108093 C-50.36470231 61.00668653 -50.35430345 57.70253696 -50.33618164 54.39819336 C-50.31343909 50.15767618 -50.31296213 45.91751477 -50.31969929 41.67695332 C-50.3230354 38.41793134 -50.31641689 35.15899089 -50.30657005 31.89998436 C-50.30271576 30.33584202 -50.30157078 28.77169062 -50.3031559 27.20754433 C-50.3035256 25.02661356 -50.29093568 22.84614475 -50.2746582 20.6652832 C-50.27005081 19.42349808 -50.26544342 18.18171295 -50.26069641 16.90229797 C-50 14 -50 14 -48 12 C-43.44444444 12.55555556 -43.44444444 12.55555556 -42 14 C-41.90157232 16.73976116 -41.86286216 19.45890695 -41.859375 22.19921875 C-41.84103829 23.90040392 -41.82146719 25.60157615 -41.80078125 27.30273438 C-41.771867 29.99102413 -41.75000164 32.67848828 -41.74951172 35.36694336 C-41.74616614 37.95761767 -41.71154154 40.54637802 -41.671875 43.13671875 C-41.6789447 43.9338176 -41.6860144 44.73091644 -41.69329834 45.5521698 C-41.5672409 51.36616331 -40.18176876 53.93878317 -36 58 C-32.83185235 59.58407382 -29.45876393 59.29931611 -26 59 C-25.071875 58.62875 -24.14375 58.2575 -23.1875 57.875 C-22.465625 57.58625 -21.74375 57.2975 -21 57 C-20.01 57.66 -19.02 58.32 -18 59 C-13.00098397 59.46287185 -9.99126735 59.10431905 -6 56 C-3.27365514 52.96901129 -2.62290094 51.04140331 -2.59936523 46.98779297 C-2.58602646 45.99351288 -2.57268768 44.99923279 -2.5589447 43.974823 C-2.55882889 42.90805328 -2.55871307 41.84128357 -2.55859375 40.7421875 C-2.54538589 39.64278839 -2.53217804 38.54338928 -2.51856995 37.41067505 C-2.47765467 33.8987574 -2.4559898 30.38710225 -2.4375 26.875 C-2.41375104 23.3558358 -2.38570901 19.83692023 -2.34571838 16.31790161 C-2.32127031 14.12778393 -2.30648601 11.93753369 -2.30210876 9.74728394 C-2.29192215 8.75930817 -2.28173553 7.7713324 -2.27124023 6.75341797 C-2.26696518 5.88167938 -2.26269012 5.0099408 -2.25828552 4.11178589 C-2 2 -2 2 0 0 Z " fill="#F39F00" transform="translate(206,56)"/>
<path d="M0 0 C6.79976471 0.91304261 11.66376593 5.30979107 16.0625 10.375 C18.168891 16.27289481 17.35525751 21.34128725 15 27 C15.71552536 27.00586624 16.43105072 27.01173248 17.16825867 27.01777649 C23.92162426 27.07575464 30.67467535 27.14786036 37.42772198 27.23571491 C40.89930066 27.28038373 44.37076294 27.31964707 47.8425293 27.34643555 C51.8367256 27.37749455 55.83029368 27.43228188 59.82421875 27.48828125 C61.06709152 27.49467117 62.30996429 27.5010611 63.59049988 27.50764465 C65.33173882 27.53733589 65.33173882 27.53733589 67.1081543 27.56762695 C68.12741501 27.57873001 69.14667572 27.58983307 70.19682312 27.60127258 C74.57505135 28.22403729 77.19318099 30.21498691 80.3125 33.25 C82.49381184 36.80473041 82.51379023 38.88967819 82 43 C80.48007896 46.18459646 78.71704041 48.73579966 76 51 C73.17588235 51.94137255 71.47081968 52.11725382 68.55078125 52.09765625 C67.70322266 52.09443359 66.85566406 52.09121094 65.98242188 52.08789062 C65.10134766 52.07951172 64.22027344 52.07113281 63.3125 52.0625 C61.97348633 52.05573242 61.97348633 52.05573242 60.60742188 52.04882812 C58.40488013 52.03704983 56.20247401 52.02060164 54 52 C54.03222656 53.10859375 54.06445312 54.2171875 54.09765625 55.359375 C54 59 54 59 52.4375 61.25 C50.71614009 64.54303634 51.06467699 65.82096225 51.5625 69.4375 C52.02490339 73.1218109 52.30234903 75.4503927 50.25 78.625 C48 81 48 81 45 82 C45.10699219 82.59167969 45.21398437 83.18335938 45.32421875 83.79296875 C46.30277942 90.24305145 46.30277942 90.24305145 44.875 93.8125 C39.82048481 99.70943438 39.82048481 99.70943438 35.51226807 100.39706421 C32.31744667 100.58064131 29.14546897 100.63300805 25.9453125 100.63671875 C24.77040253 100.64766068 23.59549255 100.6586026 22.38497925 100.6698761 C19.90204247 100.68572937 17.41901816 100.69094112 14.93603516 100.6862793 C11.14467502 100.6874937 7.35717471 100.74726069 3.56640625 100.81054688 C1.15105109 100.8186892 -1.26431877 100.82336095 -3.6796875 100.82421875 C-5.37374222 100.85958992 -5.37374222 100.85958992 -7.10202026 100.89567566 C-14.93111604 100.80460521 -14.93111604 100.80460521 -18.10508728 98.41539001 C-19.26789808 97.16782065 -20.40081663 95.89148836 -21.49694824 94.58494568 C-23.01352201 92.71402913 -23.01352201 92.71402913 -26.05786133 92.14526367 C-27.0558374 92.15275635 -28.05381348 92.16024902 -29.08203125 92.16796875 C-30.72655273 92.14766602 -30.72655273 92.14766602 -32.40429688 92.12695312 C-33.52900391 92.14693359 -34.65371094 92.16691406 -35.8125 92.1875 C-38.06901945 92.18877128 -40.32555918 92.18264716 -42.58203125 92.16796875 C-43.57436768 92.18110107 -44.5667041 92.1942334 -45.58911133 92.20776367 C-48 92 -48 92 -50 90 C-49.44444444 85.44444444 -49.44444444 85.44444444 -48 84 C-43.46769723 83.60431595 -38.92211859 83.58144093 -34.375 83.5 C-33.10269531 83.44585937 -31.83039063 83.39171875 -30.51953125 83.3359375 C-28.66521484 83.30886719 -28.66521484 83.30886719 -26.7734375 83.28125 C-25.64341309 83.25095703 -24.51338867 83.22066406 -23.34912109 83.18945312 C-19.62320253 84.09119169 -19.16470852 84.71045465 -16.78930664 87.50219727 C-13.86339294 90.68280006 -12.0254 91.52893755 -7.70727539 91.79467773 C-5.67039938 91.79357937 -3.63329434 91.75460519 -1.59765625 91.68359375 C-0.51995468 91.67368912 0.55774689 91.66378448 1.66810608 91.65357971 C5.09265225 91.61455695 8.51393137 91.52675191 11.9375 91.4375 C14.26622958 91.40237075 16.59500967 91.37043458 18.92382812 91.34179688 C24.61699026 91.26483533 30.30826171 91.14786784 36 91 C36.33 89.35 36.66 87.7 37 86 C36.030625 85.608125 35.06125 85.21625 34.0625 84.8125 C31 83 31 83 30 80.4375 C30 78 30 78 32 76 C34.3828125 75.5859375 34.3828125 75.5859375 37.125 75.375 C38.49011719 75.26285156 38.49011719 75.26285156 39.8828125 75.1484375 C40.58148438 75.09945312 41.28015625 75.05046875 42 75 C42.33 73.35 42.66 71.7 43 70 C42.030625 69.608125 41.06125 69.21625 40.0625 68.8125 C37 67 37 67 36 64.4375 C36 62 36 62 38 60 C40.31765729 59.28072705 42.65095874 58.6090107 45 58 C44.67 56.35 44.34 54.7 44 53 C42.081875 52.814375 42.081875 52.814375 40.125 52.625 C36.25 52.25 36.25 52.25 34 50 C34.55555556 45.44444444 34.55555556 45.44444444 36 44 C38.66426685 43.83996512 41.30560428 43.74057111 43.97265625 43.68359375 C45.16912025 43.6524221 45.16912025 43.6524221 46.38975525 43.62062073 C48.94724611 43.55503842 51.5048428 43.49620033 54.0625 43.4375 C55.79232882 43.39432301 57.52214679 43.35070899 59.25195312 43.30664062 C63.5011926 43.19934828 67.7505389 43.09810574 72 43 C72.38218767 41.34385343 72.71395102 39.67542976 73 38 C71.15469598 36.15469598 68.14770352 36.84601184 65.67602539 36.82641602 C64.68576103 36.8163855 64.68576103 36.8163855 63.67549133 36.80615234 C62.2377058 36.79207296 60.79989752 36.78018817 59.36207771 36.77020454 C57.08883034 36.75384273 54.81575164 36.73060775 52.54258728 36.70530701 C46.07803701 36.63439428 39.61341778 36.57435395 33.14868164 36.52319336 C29.19873565 36.49145144 25.2489826 36.45018799 21.29919243 36.40299797 C19.79090271 36.38694819 18.28256849 36.37464042 16.77421761 36.36609077 C14.66706817 36.35397489 12.56037463 36.32984201 10.45336914 36.30297852 C9.25281387 36.29267105 8.05225861 36.28236359 6.81532288 36.27174377 C4 36 4 36 2 34 C2.10811138 30.32421304 3.56999897 28.02294897 5.5625 25.0625 C7.86264368 21.54931224 8.59641438 19.27430308 8 15 C7.505 13.515 7.505 13.515 7 12 C4.74958945 11.07188361 4.74958945 11.07188361 2 11 C-0.54562139 12.9210913 -0.54562139 12.9210913 -2.8125 15.75 C-3.24046875 16.24935059 -3.6684375 16.74870117 -4.109375 17.26318359 C-5.42934338 18.82452601 -6.71711992 20.40810502 -8 22 C-8.77730469 22.94617188 -9.55460937 23.89234375 -10.35546875 24.8671875 C-14.79194376 30.57238123 -16.87057107 34.88459776 -18 42 C-20 44 -20 44 -22.24658203 44.22705078 C-23.15778809 44.21657715 -24.06899414 44.20610352 -25.0078125 44.1953125 C-25.99394531 44.18886719 -26.98007812 44.18242188 -27.99609375 44.17578125 C-29.02863281 44.15902344 -30.06117188 44.14226562 -31.125 44.125 C-32.16527344 44.11597656 -33.20554687 44.10695312 -34.27734375 44.09765625 C-36.85179092 44.07403747 -39.42578212 44.04110149 -42 44 C-41.98952637 44.89831543 -41.97905273 45.79663086 -41.96826172 46.72216797 C-41.9342053 50.05064447 -41.90911382 53.37893622 -41.89013672 56.70751953 C-41.88007037 58.14895547 -41.8664162 59.59037095 -41.84912109 61.03173828 C-41.82489988 63.10193934 -41.81352359 65.17187076 -41.8046875 67.2421875 C-41.79421387 68.4885498 -41.78374023 69.73491211 -41.77294922 71.01904297 C-42 74 -42 74 -44 76 C-48.55555556 75.44444444 -48.55555556 75.44444444 -50 74 C-50.11336626 71.35713726 -50.16417761 68.74138544 -50.16796875 66.09765625 C-50.17129715 65.30475693 -50.17462555 64.5118576 -50.17805481 63.69493103 C-50.18312726 62.01448142 -50.18546304 60.33402171 -50.18530273 58.65356445 C-50.18748786 56.07681741 -50.20563609 53.50049924 -50.22460938 50.92382812 C-50.22754345 49.2942723 -50.22952815 47.66471444 -50.23046875 46.03515625 C-50.23765427 45.26115982 -50.24483978 44.48716339 -50.25224304 43.68971252 C-50.22882253 38.22882253 -50.22882253 38.22882253 -48 36 C-45.66162109 35.77294922 -45.66162109 35.77294922 -42.7734375 35.8046875 C-41.2265625 35.81435547 -41.2265625 35.81435547 -39.6484375 35.82421875 C-38.56820313 35.84097656 -37.48796875 35.85773438 -36.375 35.875 C-35.28703125 35.88402344 -34.1990625 35.89304688 -33.078125 35.90234375 C-30.38519848 35.92596591 -27.69270745 35.95890444 -25 36 C-24.85884766 34.42992188 -24.85884766 34.42992188 -24.71484375 32.828125 C-22.98644278 23.57220725 -14.56454229 16.21853545 -8.34375 9.52734375 C-5.46784087 6.42615508 -2.72836728 3.23096125 0 0 Z " fill="#030200" transform="translate(398,64)"/>
<path d="M0 0 C0.03738281 0.80824219 0.07476562 1.61648437 0.11328125 2.44921875 C0.17902344 3.51785156 0.24476562 4.58648437 0.3125 5.6875 C0.37050781 6.74324219 0.42851563 7.79898438 0.48828125 8.88671875 C1.20090612 13.22230668 2.74003428 15.96238117 6.125 18.75 C8.63648555 21.76378266 8.60464217 24.24103897 8.82421875 28.07421875 C8.79352634 30.00682747 8.79352634 30.00682747 10 31 C11.63256758 31.15714654 13.27135338 31.25085414 14.91015625 31.31640625 C16.39418945 31.37924805 16.39418945 31.37924805 17.90820312 31.44335938 C18.94912109 31.48267578 19.99003906 31.52199219 21.0625 31.5625 C22.10728516 31.60568359 23.15207031 31.64886719 24.22851562 31.69335938 C26.81886884 31.79981225 29.40932186 31.9018276 32 32 C32.01458252 32.89831543 32.02916504 33.79663086 32.04418945 34.72216797 C32.10519697 38.0510659 32.17933628 41.37912883 32.26245117 44.70751953 C32.29573178 46.14881342 32.32375404 47.59023863 32.34643555 49.03173828 C32.3799262 51.10245797 32.432233 53.17197093 32.48828125 55.2421875 C32.51446533 56.4885498 32.54064941 57.73491211 32.56762695 59.01904297 C32.78165161 60.4946167 32.78165161 60.4946167 33 62 C33.99 62.66 34.98 63.32 36 64 C36.40843923 66.71203652 36.13336867 69.2437142 36 72 C35.33991943 72.0093457 34.67983887 72.01869141 33.99975586 72.02832031 C30.97827535 72.08235573 27.95828824 72.16593693 24.9375 72.25 C23.89916016 72.26417969 22.86082031 72.27835937 21.79101562 72.29296875 C15.27490197 72.4998295 11.3560025 73.26103265 6 77 C2.17173318 79.66648859 -0.30037292 80.36460965 -4.95703125 80.29296875 C-6.06884766 80.28330078 -7.18066406 80.27363281 -8.32617188 80.26367188 C-10.0519043 80.2259668 -10.0519043 80.2259668 -11.8125 80.1875 C-13.56723633 80.16719727 -13.56723633 80.16719727 -15.35742188 80.14648438 C-18.238752 80.11120278 -21.11913904 80.0619028 -24 80 C-24.33820166 78.4176994 -24.67035939 76.83410625 -25 75.25 C-25.185625 74.36828125 -25.37125 73.4865625 -25.5625 72.578125 C-26.09549176 69.4372807 -26.45752243 66.91504486 -25 64 C-24.68747485 58.47672326 -24.68747485 58.47672326 -26.125 53.25 C-26.41375 52.5075 -26.7025 51.765 -27 51 C-26.36959957 49.64914193 -25.69748583 48.31747324 -25 47 C-24.73110877 43.30274557 -24.71475899 40.6972558 -26.125 37.25 C-26.41375 36.5075 -26.7025 35.765 -27 35 C-26.34 34.01 -25.68 33.02 -25 32 C-24.54860541 29.9507906 -24.54860541 29.9507906 -24.375 27.8125 C-24.25125 26.554375 -24.1275 25.29625 -24 24 C-22.68 24 -21.36 24 -20 24 C-19.91363281 24.72445312 -19.82726562 25.44890625 -19.73828125 26.1953125 C-18.79813381 32.66421693 -17.8348174 36.5105267 -13 41 C-9.53571026 43.54047914 -6.18972863 43.16114341 -2 43 C-1.67 41.35 -1.34 39.7 -1 38 C-1.62648438 37.75765625 -2.25296875 37.5153125 -2.8984375 37.265625 C-3.71570313 36.93046875 -4.53296875 36.5953125 -5.375 36.25 C-6.59316406 35.76273438 -6.59316406 35.76273438 -7.8359375 35.265625 C-10.46100689 33.73038586 -10.90533203 32.80604604 -12 30 C-12.47442765 25.86624196 -12.41627256 21.72071953 -12.4375 17.5625 C-12.47037109 16.43005859 -12.50324219 15.29761719 -12.53710938 14.13085938 C-12.59083219 5.84289371 -12.59083219 5.84289371 -9.7109375 1.734375 C-6.27787106 -0.46199604 -3.99951607 -0.39210942 0 0 Z " fill="#F39F00" transform="translate(96,76)"/>
<path d="M0 0 C39.6 0 79.2 0 120 0 C120 6.6 120 13.2 120 20 C80.4 20 40.8 20 0 20 C0 13.4 0 6.8 0 0 Z " fill="#0E3E86" transform="translate(196,468)"/>
<path d="M0 0 C4.30821055 1.37745507 8.56678703 2.74942885 12.6875 4.625 C15.86595826 5.94436003 18.61642176 6.49837861 22 7 C22.08774066 10.20815845 22.14063706 13.41600462 22.1875 16.625 C22.21263672 17.52863281 22.23777344 18.43226563 22.26367188 19.36328125 C22.3217829 24.67075491 22.05626093 28.44444126 19 33 C14.61263228 36.06095422 10.24652246 36.91575665 5 36 C2.62249937 35.04581915 0.35176653 33.95686153 -1.9453125 32.82421875 C-4.59864629 31.75985862 -6.35426983 31.97584639 -9 33 C-8.95019565 35.42499598 -8.95019565 35.42499598 -8 38 C-5.43063585 39.66828119 -5.43063585 39.66828119 -2.25 40.75 C-1.20328125 41.15734375 -0.1565625 41.5646875 0.921875 41.984375 C3.62353726 42.87578641 6.21170898 43.47254927 9 44 C9.11681812 47.54138618 9.187455 51.0822724 9.25 54.625 C9.30027344 56.12353516 9.30027344 56.12353516 9.3515625 57.65234375 C9.43023265 63.59194002 9.232268 67.42737478 5 72 C1.03724344 74.70722973 -3.36297675 74.81975947 -8 74 C-11.37109886 71.41788173 -13.36628175 68.88115345 -15 65 C-15.24482727 62.87548828 -15.24482727 62.87548828 -15.23950195 60.5703125 C-15.24323318 59.7026123 -15.24696442 58.83491211 -15.25080872 57.94091797 C-15.24667465 57.01166504 -15.24254059 56.08241211 -15.23828125 55.125 C-15.2536951 53.15103475 -15.2699983 51.17707627 -15.28710938 49.203125 C-15.30359192 46.09555095 -15.31247384 42.98847374 -15.30541992 39.88085938 C-15.30280531 36.87833457 -15.33087495 33.87732298 -15.36328125 30.875 C-15.35307449 29.94574707 -15.34286774 29.01649414 -15.33235168 28.05908203 C-15.36967255 25.60351454 -15.44455092 23.39263719 -16 21 C-18.3748238 18.54894757 -18.3748238 18.54894757 -21 17 C-21.4375 13.875 -21.4375 13.875 -21 11 C-19 9 -19 9 -16.3125 8.8125 C-13 9 -13 9 -9.4375 9.875 C-8.303125 9.91625 -7.16875 9.9575 -6 10 C-2.685527 6.90168828 -0.90254614 4.40711362 0 0 Z " fill="#FB97BD" transform="translate(258,259)"/>
<path d="M0 0 C7.86562383 3.33065889 15.51790378 3.45158316 23.9375 3.5625 C24.50636257 17.76299517 24.50636257 17.76299517 20.9375 22.5625 C17.09281977 26.03208948 14.40014332 27.95846754 9.12207031 27.88330078 C3.41366305 27.04502998 -1.92361355 24.01530971 -7.14453125 21.67382812 C-8.08941406 21.26455078 -9.03429687 20.85527344 -10.0078125 20.43359375 C-10.85875488 20.05130615 -11.70969727 19.66901855 -12.58642578 19.27514648 C-15.45809177 18.24322927 -15.45809177 18.24322927 -20.0625 19.5625 C-19.7325 23.1925 -19.4025 26.8225 -19.0625 30.5625 C-23.3525 30.2325 -27.6425 29.9025 -32.0625 29.5625 C-32.85635403 11.39206324 -32.85635403 11.39206324 -28.0625 5.5625 C-19.797295 -3.21347609 -10.78255632 -4.64997741 0 0 Z " fill="#0D3C83" transform="translate(269.0625,230.4375)"/>
<path d="M0 0 C1.39895508 -0.01836914 1.39895508 -0.01836914 2.82617188 -0.03710938 C4.16325195 -0.04000977 4.16325195 -0.04000977 5.52734375 -0.04296875 C6.348396 -0.04707764 7.16944824 -0.05118652 8.01538086 -0.05541992 C10.0625 0.1875 10.0625 0.1875 12.0625 2.1875 C11.50694444 6.74305556 11.50694444 6.74305556 10.0625 8.1875 C6.75733066 8.43785974 3.43853959 8.37271952 0.125 8.375 C-0.80763672 8.38724609 -1.74027344 8.39949219 -2.70117188 8.41210938 C-3.59255859 8.41404297 -4.48394531 8.41597656 -5.40234375 8.41796875 C-6.223396 8.42207764 -7.04444824 8.42618652 -7.89038086 8.43041992 C-9.9375 8.1875 -9.9375 8.1875 -11.9375 6.1875 C-10.98106887 -1.6552353 -6.84894087 0.00471366 0 0 Z " fill="#F09D00" transform="translate(51.9375,115.8125)"/>
<path d="M0 0 C1.39895508 -0.01836914 1.39895508 -0.01836914 2.82617188 -0.03710938 C4.16325195 -0.04000977 4.16325195 -0.04000977 5.52734375 -0.04296875 C6.348396 -0.04707764 7.16944824 -0.05118652 8.01538086 -0.05541992 C10.0625 0.1875 10.0625 0.1875 12.0625 2.1875 C11.50694444 6.74305556 11.50694444 6.74305556 10.0625 8.1875 C6.75733066 8.43785974 3.43853959 8.37271952 0.125 8.375 C-0.80763672 8.38724609 -1.74027344 8.39949219 -2.70117188 8.41210938 C-3.59255859 8.41404297 -4.48394531 8.41597656 -5.40234375 8.41796875 C-6.223396 8.42207764 -7.04444824 8.42618652 -7.89038086 8.43041992 C-9.9375 8.1875 -9.9375 8.1875 -11.9375 6.1875 C-10.98106887 -1.6552353 -6.84894087 0.00471366 0 0 Z " fill="#F09D00" transform="translate(51.9375,99.8125)"/>
<path d="M0 0 C4.55555556 0.55555556 4.55555556 0.55555556 6 2 C6.25035974 5.30516934 6.18521952 8.62396041 6.1875 11.9375 C6.19974609 12.87013672 6.21199219 13.80277344 6.22460938 14.76367188 C6.22750977 16.10075195 6.22750977 16.10075195 6.23046875 17.46484375 C6.23457764 18.285896 6.23868652 19.10694824 6.24291992 19.95288086 C6 22 6 22 4 24 C-0.55555556 23.44444444 -0.55555556 23.44444444 -2 22 C-2.25035974 18.69483066 -2.18521952 15.37603959 -2.1875 12.0625 C-2.19974609 11.12986328 -2.21199219 10.19722656 -2.22460938 9.23632812 C-2.22654297 8.34494141 -2.22847656 7.45355469 -2.23046875 6.53515625 C-2.23663208 5.30357788 -2.23663208 5.30357788 -2.24291992 4.04711914 C-2 2 -2 2 0 0 Z " fill="#F09D00" transform="translate(190,84)"/>
<path d="M0 0 C0.83724609 -0.01224609 1.67449219 -0.02449219 2.53710938 -0.03710938 C3.73883789 -0.04000977 3.73883789 -0.04000977 4.96484375 -0.04296875 C5.70210693 -0.04707764 6.43937012 -0.05118652 7.19897461 -0.05541992 C9.0625 0.1875 9.0625 0.1875 11.0625 2.1875 C10.50694444 6.74305556 10.50694444 6.74305556 9.0625 8.1875 C6.07231839 8.31417764 3.11555892 8.37270838 0.125 8.375 C-0.71224609 8.38724609 -1.54949219 8.39949219 -2.41210938 8.41210938 C-3.61383789 8.41500977 -3.61383789 8.41500977 -4.83984375 8.41796875 C-5.57710693 8.42207764 -6.31437012 8.42618652 -7.07397461 8.43041992 C-8.9375 8.1875 -8.9375 8.1875 -10.9375 6.1875 C-10.03074546 -1.24788726 -6.61756655 0.00507093 0 0 Z " fill="#EE9B00" transform="translate(52.9375,131.8125)"/>
<path d="M0 0 C4.55555556 0.55555556 4.55555556 0.55555556 6 2 C6.12667764 4.99018161 6.18520838 7.94694108 6.1875 10.9375 C6.19974609 11.77474609 6.21199219 12.61199219 6.22460938 13.47460938 C6.22750977 14.67633789 6.22750977 14.67633789 6.23046875 15.90234375 C6.23457764 16.63960693 6.23868652 17.37687012 6.24291992 18.13647461 C6 20 6 20 4 22 C-0.55555556 21.44444444 -0.55555556 21.44444444 -2 20 C-2.12667764 17.00981839 -2.18520838 14.05305892 -2.1875 11.0625 C-2.19974609 10.22525391 -2.21199219 9.38800781 -2.22460938 8.52539062 C-2.22654297 7.72423828 -2.22847656 6.92308594 -2.23046875 6.09765625 C-2.23457764 5.36039307 -2.23868652 4.62312988 -2.24291992 3.86352539 C-2 2 -2 2 0 0 Z " fill="#ED9B00" transform="translate(174,86)"/>
<path d="M0 0 C1.08152344 -0.01417969 2.16304687 -0.02835938 3.27734375 -0.04296875 C6.0625 0.1875 6.0625 0.1875 8.0625 2.1875 C7.50694444 6.74305556 7.50694444 6.74305556 6.0625 8.1875 C4.08630553 8.31264928 2.10511827 8.3632276 0.125 8.375 C-0.95652344 8.38917969 -2.03804687 8.40335938 -3.15234375 8.41796875 C-5.9375 8.1875 -5.9375 8.1875 -7.9375 6.1875 C-7.18513529 0.01810941 -5.98340298 0.03557314 0 0 Z " fill="#EF9C00" transform="translate(55.9375,147.8125)"/>
<path d="M0 0 C1.32 1.32 2.64 2.64 4 4 C2.02 6.97 2.02 6.97 0 10 C-2.375 9.75 -2.375 9.75 -5 9 C-6.3125 6.9375 -6.3125 6.9375 -7 5 C-4.69 3.35 -2.38 1.7 0 0 Z " fill="#E6B316" transform="translate(315,117)"/>
</svg>
